<svg width="54" height="70" viewBox="0 0 54 70" fill="none" xmlns="http://www.w3.org/2000/svg">
<path d="M41.7957 22.6251L41.5387 23.1247L42.0648 23.3219C48.0993 25.5849 52.4497 31.4461 52.4497 38.2896C52.4497 47.1075 45.3146 54.2426 36.4967 54.2426H20.3429C9.90962 54.2426 1.39844 45.7314 1.39844 35.2982C1.39844 26.9641 6.75936 19.91 14.2821 17.3441L14.6969 17.2026L14.6109 16.7728C14.5628 16.5321 14.5608 16.2271 14.5608 15.8537C14.5608 7.87348 21.0378 1.39648 29.0181 1.39648C36.9984 1.39648 43.4754 7.87348 43.4754 15.8537C43.4754 18.279 42.8401 20.5943 41.7957 22.6251Z" stroke="white"/>
<path d="M14.2821 17.3441L14.6969 17.2026L14.6109 16.7728C14.5628 16.5321 14.5608 16.2271 14.5608 15.8537C14.5608 7.87348 21.0378 1.39648 29.0181 1.39648C29.1758 1.39648 29.3337 1.39948 29.4915 1.40523C23.6793 3.61989 19.5437 9.25572 19.5437 15.8537C19.5437 16.056 19.5604 16.2396 19.575 16.4L19.5757 16.4076C19.5793 16.4472 19.5828 16.4855 19.586 16.5228C11.86 19.3208 6.38134 26.6534 6.38134 35.2982C6.38134 44.1065 12.1411 51.6119 20.087 54.2409C9.7708 54.1031 1.39844 45.646 1.39844 35.2982C1.39844 26.9641 6.75936 19.91 14.2821 17.3441Z" stroke="white"/>
<path d="M27.8205 55.141H27.3205V55.641V69.1026C27.3205 69.3051 27.1256 69.5 26.9231 69.5C26.7206 69.5 26.5256 69.3051 26.5256 69.1026V55.641V55.141H26.0256H20.3419C9.42999 55.141 0.5 46.211 0.5 35.2991C0.5 27.013 5.6348 19.6595 13.3395 16.7411L13.6624 16.6188V16.2735V16.2728V16.2721V16.2714V16.2707V16.27V16.2693V16.2686V16.2679V16.2671V16.2664V16.2657V16.265V16.2643V16.2636V16.2628V16.2621V16.2614V16.2607V16.2599V16.2592V16.2585V16.2578V16.257V16.2563V16.2556V16.2548V16.2541V16.2534V16.2526V16.2519V16.2511V16.2504V16.2497V16.2489V16.2482V16.2474V16.2467V16.2459V16.2452V16.2444V16.2437V16.2429V16.2422V16.2414V16.2407V16.2399V16.2391V16.2384V16.2376V16.2368V16.2361V16.2353V16.2346V16.2338V16.233V16.2323V16.2315V16.2307V16.2299V16.2292V16.2284V16.2276V16.2268V16.2261V16.2253V16.2245V16.2237V16.2229V16.2222V16.2214V16.2206V16.2198V16.219V16.2182V16.2174V16.2167V16.2159V16.2151V16.2143V16.2135V16.2127V16.2119V16.2111V16.2103V16.2095V16.2087V16.2079V16.2071V16.2063V16.2055V16.2047V16.2039V16.2031V16.2023V16.2015V16.2007V16.1999V16.1991V16.1982V16.1974V16.1966V16.1958V16.195V16.1942V16.1934V16.1926V16.1917V16.1909V16.1901V16.1893V16.1885V16.1876V16.1868V16.186V16.1852V16.1844V16.1835V16.1827V16.1819V16.1811V16.1802V16.1794V16.1786V16.1777V16.1769V16.1761V16.1752V16.1744V16.1736V16.1727V16.1719V16.1711V16.1702V16.1694V16.1686V16.1677V16.1669V16.1661V16.1652V16.1644V16.1635V16.1627V16.1618V16.161V16.1602V16.1593V16.1585V16.1576V16.1568V16.1559V16.1551V16.1542V16.1534V16.1525V16.1517V16.1509V16.15V16.1492V16.1483V16.1474V16.1466V16.1457V16.1449V16.144V16.1432V16.1423V16.1415V16.1406V16.1398V16.1389V16.1381V16.1372V16.1363V16.1355V16.1346V16.1338V16.1329V16.132V16.1312V16.1303V16.1295V16.1286V16.1277V16.1269V16.126V16.1251V16.1243V16.1234V16.1226V16.1217V16.1208V16.12V16.1191V16.1182V16.1174V16.1165V16.1156V16.1148V16.1139V16.113V16.1122V16.1113V16.1104V16.1096V16.1087V16.1078V16.1069V16.1061V16.1052V16.1043V16.1035V16.1026V16.1017V16.1008V16.1V16.0991V16.0982V16.0974V16.0965V16.0956V16.0947V16.0939V16.093V16.0921V16.0912V16.0904V16.0895V16.0886V16.0877V16.0869V16.086V16.0851V16.0842V16.0834V16.0825V16.0816V16.0807V16.0799V16.079V16.0781V16.0772V16.0764V16.0755V16.0746V16.0737V16.0729V16.072V16.0711V16.0702V16.0694V16.0685V16.0676V16.0667V16.0659V16.065V16.0641V16.0632V16.0624V16.0615V16.0606V16.0597V16.0588V16.058V16.0571V16.0562V16.0553V16.0545V16.0536V16.0527V16.0518V16.051V16.0501V16.0492V16.0483V16.0475V16.0466V16.0457V16.0448V16.044V16.0431V16.0422V16.0413V16.0405V16.0396V16.0387V16.0378V16.037V16.0361V16.0352V16.0343V16.0335V16.0326V16.0317V16.0308V16.03V16.0291V16.0282V16.0274V16.0265V16.0256V16.0247V16.0239V16.023V16.0221V16.0213V16.0204V16.0195V16.0187V16.0178V16.0169V16.016V16.0152V16.0143V16.0134V16.0126V16.0117V16.0108V16.01V16.0091V16.0082V16.0074V16.0065V16.0057V16.0048V16.0039V16.0031V16.0022V16.0013V16.0005V15.9996V15.9987V15.9979V15.997V15.9962V15.9953V15.9944V15.9936V15.9927V15.9919V15.991V15.9902V15.9893V15.9884V15.9876V15.9867V15.9859V15.985V15.9842V15.9833V15.9825V15.9816V15.9808V15.9799V15.9791V15.9782V15.9774V15.9765V15.9757V15.9748V15.974V15.9731V15.9723V15.9714V15.9706V15.9697V15.9689V15.968V15.9672V15.9664V15.9655V15.9647V15.9638V15.963V15.9622V15.9613V15.9605V15.9596V15.9588V15.958V15.9571V15.9563V15.9555V15.9546V15.9538V15.953V15.9521V15.9513V15.9505V15.9496V15.9488V15.948V15.9472V15.9463V15.9455V15.9447V15.9439V15.943V15.9422V15.9414V15.9406V15.9397V15.9389V15.9381V15.9373V15.9365V15.9357V15.9348V15.934V15.9332V15.9324V15.9316V15.9308V15.93V15.9291V15.9283V15.9275V15.9267V15.9259V15.9251V15.9243V15.9235V15.9227V15.9219V15.9211V15.9203V15.9195V15.9187V15.9179V15.9171V15.9163V15.9155V15.9147V15.9139V15.9131V15.9123V15.9115V15.9108V15.91V15.9092V15.9084V15.9076V15.9068V15.906V15.9053V15.9045V15.9037V15.9029V15.9021V15.9014V15.9006V15.8998V15.899V15.8983V15.8975V15.8967V15.896V15.8952V15.8944V15.8937V15.8929V15.8921V15.8914V15.8906V15.8898V15.8891V15.8883V15.8876V15.8868V15.886V15.8853V15.8845V15.8838V15.883V15.8823V15.8815V15.8808V15.88V15.8793V15.8786V15.8778V15.8771V15.8763V15.8756V15.8748V15.8741V15.8734V15.8726V15.8719V15.8712V15.8704V15.8697V15.869V15.8683V15.8675V15.8668V15.8661V15.8654V15.8646V15.8639V15.8632V15.8625V15.8618V15.8611V15.8604V15.8596V15.8589V15.8582V15.8575V15.8568V15.8561V15.8554V15.8547C13.6624 7.3958 20.5582 0.5 29.0171 0.5C37.476 0.5 44.3718 7.3958 44.3718 15.8547C44.3718 17.9902 43.8515 20.1952 42.9784 22.1742L42.7761 22.6329L43.2353 22.834C49.3361 25.5068 53.3461 31.6096 53.3461 38.2906C53.3461 47.5871 45.7922 55.141 36.4957 55.141H27.8205ZM14.2009 17.2351L14.2009 17.235L14.1963 17.2366C6.51714 19.8782 1.29487 27.1271 1.29487 35.2991C1.29487 45.8061 9.83497 54.3462 20.3419 54.3462H26.0256H26.5256V53.8462V35.9573V35.649L26.2502 35.5105L14.8228 29.7669L14.8219 29.7665C14.5664 29.6387 14.5347 29.4033 14.6136 29.2652L14.6205 29.2531L14.6267 29.2407C14.7545 28.9852 14.9899 28.9535 15.128 29.0324L15.14 29.0393L15.1525 29.0455L25.802 34.3703L26.5256 34.7321V33.9231V21.8376C26.5256 21.6351 26.7206 21.4402 26.9231 21.4402C27.1256 21.4402 27.3205 21.6351 27.3205 21.8376V45.8889V46.6959L28.0431 46.3366L38.7369 41.0196C38.9074 40.9533 39.1549 41.0232 39.2767 41.2056C39.3346 41.3801 39.2576 41.6254 39.0693 41.7397L27.5969 47.4759L27.3205 47.6141V47.9231V53.8462V54.3462H27.8205H36.4957C45.3274 54.3462 52.5513 47.1223 52.5513 38.2906C52.5513 31.6302 48.3657 25.5887 42.1436 23.2347C42.0275 23.1726 41.9402 23.0892 41.8747 22.9777C41.8505 22.8502 41.8623 22.7546 41.9066 22.6638C43.0211 20.5562 43.5769 18.2041 43.5769 15.8547C43.5769 7.80078 37.071 1.29487 29.0171 1.29487C20.9624 1.29487 14.4594 7.80068 14.3975 15.8509H14.3974V15.8547C14.3974 16.0272 14.4141 16.2108 14.4284 16.3675L14.4294 16.3786C14.4449 16.5486 14.4573 16.6894 14.4573 16.812V16.8475L14.4623 16.8827C14.4718 16.9495 14.4552 17.0166 14.4083 17.0822C14.3585 17.152 14.2817 17.2081 14.2009 17.2351Z" fill="#4A374F" stroke="white"/>
</svg>
