<svg width="64" height="57" viewBox="0 0 64 57" fill="none" xmlns="http://www.w3.org/2000/svg">
<path d="M64 7.96111H55.4575C55.2675 7.56883 55.0625 7.18637 54.835 6.81616C53.0647 3.83738 50.2164 1.62082 46.8561 0.606997C43.4958 -0.406827 39.8696 -0.143695 36.6981 1.3441C33.5266 2.83189 31.0419 5.43543 29.738 8.63729C28.434 11.8392 28.4062 15.4049 29.66 18.626L3.9525 43.8172L0 47.713L2.7975 50.454L10.1175 48.5416C16.6813 52.3953 24.4328 53.823 31.975 52.5673V56.9951H33.975V52.1652C36.7687 51.5226 39.4601 50.5097 41.975 49.1546V57H43.975V47.9851C49.7201 44.3421 54.1251 38.991 56.5449 32.7153C58.9647 26.4397 59.2722 19.5691 57.4225 13.1097L64 7.96111ZM47.8275 42.4296C44.0103 46.1887 39.223 48.8599 33.9775 50.1573C33.3175 50.3191 32.65 50.4613 31.9775 50.579C24.8048 51.8452 17.4072 50.5242 11.15 46.8598L10.425 46.4332L3.3975 48.2695L2.8325 47.713L6.7925 43.8295L31.9825 19.1212L31.535 17.942C30.4559 15.1798 30.4771 12.1203 31.5943 9.37276C32.7116 6.62518 34.843 4.39099 37.5641 3.11496C40.2853 1.83892 43.3967 1.61465 46.2789 2.48679C49.161 3.35893 51.6026 5.26351 53.1175 7.82136C53.305 8.12782 53.4825 8.45635 53.65 8.80204L54.1925 9.92247H58.295L55.1375 12.3962L55.5 13.649C56.9406 18.6824 56.9892 24.0011 55.6409 29.059C54.2925 34.1168 51.5957 38.7317 47.8275 42.4296Z" fill="white"/>
<path d="M37.5 5C36.8078 5 36.1311 5.20527 35.5555 5.58986C34.9799 5.97444 34.5313 6.52107 34.2664 7.16061C34.0015 7.80015 33.9322 8.50388 34.0673 9.18282C34.2023 9.86175 34.5356 10.4854 35.0251 10.9749C35.5146 11.4644 36.1383 11.7977 36.8172 11.9327C37.4961 12.0678 38.1999 11.9985 38.8394 11.7336C39.4789 11.4687 40.0256 11.0201 40.4101 10.4445C40.7947 9.86892 41 9.19223 41 8.5C41 7.57174 40.6313 6.6815 39.9749 6.02513C39.3185 5.36875 38.4283 5 37.5 5ZM37.5 9.66667C37.2693 9.66667 37.0437 9.59824 36.8518 9.47005C36.66 9.34185 36.5104 9.15964 36.4221 8.94646C36.3338 8.73328 36.3107 8.4987 36.3558 8.27239C36.4008 8.04608 36.5119 7.8382 36.675 7.67504C36.8382 7.51188 37.0461 7.40077 37.2724 7.35575C37.4987 7.31073 37.7333 7.33384 37.9465 7.42214C38.1596 7.51044 38.3419 7.65998 38.47 7.85183C38.5982 8.04369 38.6667 8.26925 38.6667 8.5C38.6667 8.80942 38.5438 9.10616 38.325 9.32496C38.1062 9.54375 37.8094 9.66667 37.5 9.66667Z" fill="white"/>
</svg>
