<svg width="59" height="59" viewBox="0 0 59 59" fill="none" xmlns="http://www.w3.org/2000/svg">
<path d="M18.1797 31.336C16.9977 32.518 15.553 33.1747 13.7143 33.1747C12.0069 33.1747 10.4309 32.518 9.24887 31.336C8.06684 30.154 7.41016 28.7093 7.41016 26.8706C7.41016 25.1632 8.06684 23.5871 9.24887 22.4051C10.4309 21.2231 12.0069 20.5664 13.7143 20.5664C15.4217 20.5664 16.9977 21.2231 18.1797 22.4051" stroke="white" stroke-width="2" stroke-miterlimit="10"/>
<path d="M13.7162 20.7C13.1909 19.912 12.7969 18.8613 12.7969 17.6792C12.7969 14.7898 15.1609 12.4258 18.0503 12.4258C19.101 12.4258 20.0204 12.6885 20.9397 13.2138" stroke="white" stroke-width="2" stroke-miterlimit="10"/>
<path d="M18.4375 12.4249C18.4375 9.92951 20.5389 7.82812 23.0343 7.82812C25.5297 7.82812 27.631 9.92951 27.631 12.4249V47.0977C27.631 49.0678 26.1863 50.6438 24.2163 50.6438C22.2463 50.6438 20.6702 49.0678 20.6702 47.0977C20.6702 46.441 20.8016 45.7843 21.1956 45.259" stroke="white" stroke-width="2" stroke-miterlimit="10"/>
<path d="M16.7312 41.8454C15.9432 42.2394 15.1552 42.3707 14.2358 42.3707C11.0838 42.3707 8.45703 39.744 8.45703 36.5919C8.45703 34.8845 9.24505 33.3085 10.4271 32.2578" stroke="white" stroke-width="2" stroke-miterlimit="10"/>
<path d="M21.0642 46.9669C20.2762 47.4922 19.2255 47.7549 18.1748 47.7549C15.0227 47.7549 12.5273 45.2595 12.5273 42.1074" stroke="white" stroke-width="2" stroke-miterlimit="10"/>
<path d="M41.3086 31.336C42.4906 32.518 43.9353 33.1747 45.774 33.1747C47.4814 33.1747 49.0574 32.518 50.2395 31.336C51.4215 30.154 52.0782 28.7093 52.0782 26.8706C52.0782 25.1632 51.4215 23.5871 50.2395 22.4051C49.0574 21.2231 47.4814 20.5664 45.774 20.5664C44.0667 20.5664 42.4906 21.2231 41.3086 22.4051" stroke="white" stroke-width="2" stroke-miterlimit="10"/>
<path d="M45.7704 20.7C46.2957 19.912 46.6897 18.8613 46.6897 17.6792C46.6897 14.7898 44.3257 12.4258 41.4363 12.4258C40.3856 12.4258 39.4662 12.6885 38.5469 13.2138" stroke="white" stroke-width="2" stroke-miterlimit="10"/>
<path d="M41.0373 12.4249C41.0373 9.92951 38.9359 7.82812 36.4405 7.82812C33.9451 7.82812 31.8438 9.79817 31.8438 12.4249V47.0977C31.8438 49.0678 33.2885 50.6438 35.2585 50.6438C37.2285 50.6438 38.8046 49.0678 38.8046 47.0977C38.8046 46.441 38.6732 45.7843 38.2792 45.259" stroke="white" stroke-width="2" stroke-miterlimit="10"/>
<path d="M42.7344 41.8454C43.5224 42.2394 44.3104 42.3707 45.2298 42.3707C48.3818 42.3707 51.0086 39.744 51.0086 36.5919C51.0086 34.8845 50.2206 33.3085 49.0385 32.2578" stroke="white" stroke-width="2" stroke-miterlimit="10"/>
<path d="M38.4102 46.9669C39.1982 47.4922 40.2489 47.7549 41.2996 47.7549C44.4516 47.7549 46.947 45.2595 46.947 42.1074" stroke="white" stroke-width="2" stroke-miterlimit="10"/>
<path d="M22.25 23.065C22.25 20.3069 24.4827 18.0742 27.2408 18.0742" stroke="white" stroke-width="2" stroke-miterlimit="10"/>
<path d="M35.3984 29.6314C35.3984 26.8733 37.6312 24.6406 40.3892 24.6406" stroke="white" stroke-width="2" stroke-miterlimit="10"/>
<path d="M37.7525 42.2369C37.7525 39.4788 35.5198 37.2461 32.7617 37.2461" stroke="white" stroke-width="2" stroke-miterlimit="10"/>
<path d="M18.5898 40.3995C18.5898 37.5101 20.9539 35.2773 23.712 35.2773" stroke="white" stroke-width="2" stroke-miterlimit="10"/>
<path d="M29.5 58C13.7396 58 1 45.2604 1 29.5C1 13.7396 13.7396 1 29.5 1" stroke="white" stroke-width="2" stroke-miterlimit="10"/>
<path d="M29.5 1C45.2604 1 58 13.7396 58 29.5C58 45.2604 45.2604 58 29.5 58" stroke="white" stroke-width="2" stroke-miterlimit="10" stroke-dasharray="2 2"/>
</svg>
