<svg width="51" height="65" viewBox="0 0 51 65" fill="none" xmlns="http://www.w3.org/2000/svg">
<mask id="path-1-inside-1_995_7026" fill="white">
<path d="M23.1753 0.000833047C22.5134 0.029179 21.9887 0.727934 22.2906 1.42307C22.2906 1.42307 22.6446 2.24729 22.6199 3.32724C22.595 4.40725 22.2682 5.62443 20.6245 6.67941C18.5763 7.99337 15.9412 10.3243 13.7654 13.4035C11.5896 16.4828 9.88165 20.3219 9.88165 24.5887C9.88198 33.0367 17.512 39.7925 26.7655 39.7925C36.0188 39.7925 43.6471 33.0367 43.6473 24.5887C43.6473 24.1061 43.6294 23.6405 43.5957 23.1784C43.5304 22.2557 42.366 21.8943 41.7887 22.6171C41.0807 23.4966 39.8858 24.0984 38.506 24.1008C37.3418 24.1003 36.2555 23.6972 35.6259 23.0812C34.9962 22.4653 34.6945 21.7059 35.0646 20.4273C36.562 15.256 36.2467 11.2158 34.1878 7.97468C31.1723 3.88177 27.133 1.76623 23.6473 0.0960847C23.4885 0.0227001 23.3281 -0.00578101 23.1753 0.000833047ZM24.6372 3.29744C27.9983 5.10658 31.0863 6.88321 32.4701 9.06166C34.1812 11.7552 34.5161 15.0266 33.1148 19.8659C32.5749 21.7314 33.0918 23.4498 34.2017 24.5351C35.3111 25.6205 36.8876 26.1313 38.4981 26.1319C39.7508 26.1319 40.6117 25.3143 41.5864 24.7077C41.5092 31.8702 34.9885 37.7613 26.7655 37.7613C18.4935 37.7613 11.9151 31.8089 11.9148 24.5887C11.9148 20.8681 13.4243 17.4098 15.4296 14.5718C17.4349 11.7339 19.9398 9.53399 21.7273 8.38721C23.4251 7.23236 24.7996 5.26462 24.6372 3.29744ZM43.568 11.9794C41.9062 12.0219 40.551 13.4044 40.551 15.0757C40.551 16.7734 41.9496 18.172 43.6473 18.172C45.3451 18.172 46.7436 16.7734 46.7436 15.0757C46.7436 13.3779 45.3451 11.9794 43.6473 11.9794C43.6209 11.9794 43.5944 11.9787 43.568 11.9794ZM43.6473 14.0105C44.2473 14.0105 44.7124 14.4756 44.7124 15.0757C44.7124 15.6757 44.2473 16.1388 43.6473 16.1388C43.0472 16.1388 42.5841 15.6757 42.5841 15.0757C42.5841 14.4756 43.0472 14.0105 43.6473 14.0105ZM16.9152 16.6347C16.6167 16.6536 16.3424 16.8058 16.1655 17.0473C11.8486 22.8866 15.3324 29.972 15.3324 29.972C15.5795 30.4741 16.1862 30.6816 16.6891 30.4361C17.1942 30.192 17.4056 29.5844 17.1612 29.0794C17.1612 29.0794 14.2725 23.0247 17.7999 18.2533C18.1348 17.8003 18.0369 17.1612 17.5817 16.8291C17.3893 16.688 17.1533 16.6189 16.9152 16.6347ZM26.7654 22.1826C26.4694 22.1816 26.1876 22.3096 25.9939 22.5339C25.9939 22.5339 24.5656 24.2066 23.1296 26.2748C22.4116 27.3089 21.6875 28.4486 21.1283 29.5595C20.569 30.6704 20.1385 31.7291 20.1385 32.8046C20.1385 33.2568 20.1846 33.6957 20.2734 34.1236C20.3837 34.6783 20.926 35.036 21.4793 34.9191C22.0308 34.8051 22.3841 34.2639 22.2668 33.7131C22.2061 33.4202 22.1696 33.1181 22.1696 32.8046C22.1696 32.349 22.4492 31.4433 22.9412 30.466C23.4332 29.4886 24.1101 28.414 24.7938 27.4293C25.7763 26.0142 26.2885 25.4448 26.7655 24.8665C27.2425 25.4451 27.7471 26.0147 28.7292 27.4293C29.4129 28.414 30.0957 29.4886 30.5877 30.466C31.0797 31.4433 31.3534 32.349 31.3534 32.8046C31.3534 33.1177 31.3231 33.4204 31.2641 33.7131C31.1468 34.2639 31.5001 34.8049 32.0515 34.9191C32.5996 35.0315 33.1353 34.6791 33.2496 34.1316C33.3386 33.7033 33.3845 33.2566 33.3845 32.8046C33.3845 31.7291 32.9618 30.6704 32.4026 29.5595C31.8434 28.4486 31.1193 27.3089 30.4013 26.2748C28.9653 24.2066 27.537 22.5339 27.537 22.5339C27.3433 22.3099 27.0615 22.1819 26.7654 22.1826ZM5.34331 28.6748C3.68155 28.7173 2.32636 30.0998 2.32636 31.7711C2.32636 33.4688 3.72489 34.8674 5.42266 34.8674C7.12042 34.8674 8.51895 33.4688 8.51895 31.7711C8.51895 30.0733 7.12042 28.6748 5.42266 28.6748C5.39614 28.6748 5.36971 28.6741 5.34331 28.6748ZM5.42262 30.7059C6.02268 30.7059 6.4858 31.171 6.48579 31.7711C6.48579 32.3711 6.02268 32.8342 5.42262 32.8342C4.82257 32.8342 4.35747 32.3711 4.35747 31.7711C4.35747 31.171 4.82257 30.7059 5.42262 30.7059ZM5.73007 40.6513C5.67949 40.6512 5.62963 40.6514 5.57932 40.6533C3.83124 40.7198 2.2564 41.915 1.78681 43.6822C1.23872 45.7428 0.684611 47.8063 0.136509 49.8669C-0.441329 52.0415 0.869505 54.2951 3.04436 54.8832L3.86356 55.1056C3.88397 55.3308 3.92267 55.5582 3.98258 55.7839L5.62495 61.9685C6.20336 64.1423 8.46557 65.4413 10.6393 64.8546L10.681 64.842C10.6891 64.841 10.6982 64.8389 10.7067 64.8389C10.7548 64.8263 10.8023 64.8105 10.8496 64.797L25.3036 60.8973L39.8865 64.8287C39.8984 64.8317 39.9104 64.835 39.9222 64.8413C39.9232 64.8416 39.9252 64.8433 39.9263 64.8433L39.9818 64.859C42.1555 65.4457 44.4197 64.1469 44.9981 61.973L46.6464 55.7883C46.7054 55.566 46.7435 55.3384 46.7635 55.11L47.5847 54.8876C49.7595 54.3005 51.0625 52.0465 50.4846 49.8713L48.8442 43.6866C48.2658 41.5128 46.0016 40.214 43.8279 40.8006L25.3275 45.7952L6.80128 40.8006C6.44487 40.7043 6.08442 40.6564 5.73017 40.6561L5.73007 40.6513ZM44.9742 42.6805C45.8569 42.712 46.6394 43.3096 46.8784 44.2078L48.5287 50.3845C48.825 51.4994 48.1736 52.6243 47.051 52.9274L13.6047 61.9545C13.7722 61.3435 13.8001 60.6851 13.6582 60.0324L23.7365 57.3129C24.28 57.1652 24.5994 56.602 24.4486 56.0594C24.3008 55.5197 23.7451 55.2014 23.2049 55.3473L19.8369 56.2578C19.6583 55.0637 20.4262 53.8924 21.7193 53.6316L30.2505 51.3227C30.7932 51.1785 31.1159 50.6195 30.9705 50.0771C30.8227 49.5373 30.267 49.219 29.7268 49.3649L21.3146 51.6362C18.8987 52.1235 17.4295 54.5068 17.8712 56.7874L13.1266 58.0687L11.9206 53.6614C11.7221 52.931 11.3353 52.2985 10.8257 51.8027L44.3534 42.7539C44.5622 42.6976 44.7705 42.6733 44.9742 42.6805ZM5.80742 42.6837C5.9599 42.6868 6.11275 42.712 6.26958 42.7533L21.4238 46.8433L15.5128 48.44L7.22168 46.2165C6.67921 46.071 6.12048 46.3938 5.97603 46.9365C5.83055 47.479 6.1533 48.0358 6.69604 48.1802L11.6092 49.4932L7.09473 50.7111C7.02659 50.7269 6.95851 50.7427 6.89043 50.7587C6.85266 50.7713 6.81558 50.7808 6.77936 50.7984C5.58659 51.1566 4.66615 52.0212 4.19481 53.0914L3.57793 52.9266C2.45545 52.623 1.80424 51.4976 2.1002 50.3838C2.64829 48.3232 3.19446 46.2677 3.74257 44.2071C3.98166 43.3074 4.77672 42.719 5.65469 42.6857C5.70547 42.6836 5.7566 42.6826 5.80742 42.6837ZM40.8743 46.4127C40.7858 46.4131 40.6978 46.4253 40.6125 46.4473L34.9594 47.9608C34.4159 48.105 34.0932 48.6635 34.2394 49.2064C34.3837 49.7489 34.9407 50.0715 35.483 49.9265L41.1361 48.4031C41.6786 48.2588 42.0011 47.7018 41.8561 47.1594C41.7352 46.7171 41.3329 46.4117 40.8743 46.4127ZM7.93179 52.6509C8.86472 52.6383 9.70942 53.2525 9.9649 54.1921L11.645 60.3629C11.9452 61.4665 11.3053 62.5786 10.189 62.874C10.1809 62.8771 10.1732 62.8771 10.1653 62.8803L10.1157 62.8961C9.00203 63.1965 7.8829 62.5476 7.58872 61.4422L5.94635 55.2654C5.65019 54.1507 6.29339 53.0257 7.41616 52.7225L7.4578 52.7099C7.61689 52.6715 7.77537 52.6525 7.93179 52.6509ZM44.5676 55.6957L43.0403 61.4419C42.7463 62.5475 41.629 63.1965 40.5153 62.8959L40.4894 62.8895C40.473 62.8864 40.4568 62.8832 40.4399 62.8738C39.3236 62.5783 38.6777 61.4663 38.978 60.3626L39.9103 56.953L44.5676 55.6957ZM37.6352 57.5681L37.0203 59.8293C36.8246 60.5486 36.8393 61.279 37.0244 61.9536L29.2072 59.8431L37.6352 57.5681Z"/>
</mask>
<path d="M23.1753 0.000833047C22.5134 0.029179 21.9887 0.727934 22.2906 1.42307C22.2906 1.42307 22.6446 2.24729 22.6199 3.32724C22.595 4.40725 22.2682 5.62443 20.6245 6.67941C18.5763 7.99337 15.9412 10.3243 13.7654 13.4035C11.5896 16.4828 9.88165 20.3219 9.88165 24.5887C9.88198 33.0367 17.512 39.7925 26.7655 39.7925C36.0188 39.7925 43.6471 33.0367 43.6473 24.5887C43.6473 24.1061 43.6294 23.6405 43.5957 23.1784C43.5304 22.2557 42.366 21.8943 41.7887 22.6171C41.0807 23.4966 39.8858 24.0984 38.506 24.1008C37.3418 24.1003 36.2555 23.6972 35.6259 23.0812C34.9962 22.4653 34.6945 21.7059 35.0646 20.4273C36.562 15.256 36.2467 11.2158 34.1878 7.97468C31.1723 3.88177 27.133 1.76623 23.6473 0.0960847C23.4885 0.0227001 23.3281 -0.00578101 23.1753 0.000833047ZM24.6372 3.29744C27.9983 5.10658 31.0863 6.88321 32.4701 9.06166C34.1812 11.7552 34.5161 15.0266 33.1148 19.8659C32.5749 21.7314 33.0918 23.4498 34.2017 24.5351C35.3111 25.6205 36.8876 26.1313 38.4981 26.1319C39.7508 26.1319 40.6117 25.3143 41.5864 24.7077C41.5092 31.8702 34.9885 37.7613 26.7655 37.7613C18.4935 37.7613 11.9151 31.8089 11.9148 24.5887C11.9148 20.8681 13.4243 17.4098 15.4296 14.5718C17.4349 11.7339 19.9398 9.53399 21.7273 8.38721C23.4251 7.23236 24.7996 5.26462 24.6372 3.29744ZM43.568 11.9794C41.9062 12.0219 40.551 13.4044 40.551 15.0757C40.551 16.7734 41.9496 18.172 43.6473 18.172C45.3451 18.172 46.7436 16.7734 46.7436 15.0757C46.7436 13.3779 45.3451 11.9794 43.6473 11.9794C43.6209 11.9794 43.5944 11.9787 43.568 11.9794ZM43.6473 14.0105C44.2473 14.0105 44.7124 14.4756 44.7124 15.0757C44.7124 15.6757 44.2473 16.1388 43.6473 16.1388C43.0472 16.1388 42.5841 15.6757 42.5841 15.0757C42.5841 14.4756 43.0472 14.0105 43.6473 14.0105ZM16.9152 16.6347C16.6167 16.6536 16.3424 16.8058 16.1655 17.0473C11.8486 22.8866 15.3324 29.972 15.3324 29.972C15.5795 30.4741 16.1862 30.6816 16.6891 30.4361C17.1942 30.192 17.4056 29.5844 17.1612 29.0794C17.1612 29.0794 14.2725 23.0247 17.7999 18.2533C18.1348 17.8003 18.0369 17.1612 17.5817 16.8291C17.3893 16.688 17.1533 16.6189 16.9152 16.6347ZM26.7654 22.1826C26.4694 22.1816 26.1876 22.3096 25.9939 22.5339C25.9939 22.5339 24.5656 24.2066 23.1296 26.2748C22.4116 27.3089 21.6875 28.4486 21.1283 29.5595C20.569 30.6704 20.1385 31.7291 20.1385 32.8046C20.1385 33.2568 20.1846 33.6957 20.2734 34.1236C20.3837 34.6783 20.926 35.036 21.4793 34.9191C22.0308 34.8051 22.3841 34.2639 22.2668 33.7131C22.2061 33.4202 22.1696 33.1181 22.1696 32.8046C22.1696 32.349 22.4492 31.4433 22.9412 30.466C23.4332 29.4886 24.1101 28.414 24.7938 27.4293C25.7763 26.0142 26.2885 25.4448 26.7655 24.8665C27.2425 25.4451 27.7471 26.0147 28.7292 27.4293C29.4129 28.414 30.0957 29.4886 30.5877 30.466C31.0797 31.4433 31.3534 32.349 31.3534 32.8046C31.3534 33.1177 31.3231 33.4204 31.2641 33.7131C31.1468 34.2639 31.5001 34.8049 32.0515 34.9191C32.5996 35.0315 33.1353 34.6791 33.2496 34.1316C33.3386 33.7033 33.3845 33.2566 33.3845 32.8046C33.3845 31.7291 32.9618 30.6704 32.4026 29.5595C31.8434 28.4486 31.1193 27.3089 30.4013 26.2748C28.9653 24.2066 27.537 22.5339 27.537 22.5339C27.3433 22.3099 27.0615 22.1819 26.7654 22.1826ZM5.34331 28.6748C3.68155 28.7173 2.32636 30.0998 2.32636 31.7711C2.32636 33.4688 3.72489 34.8674 5.42266 34.8674C7.12042 34.8674 8.51895 33.4688 8.51895 31.7711C8.51895 30.0733 7.12042 28.6748 5.42266 28.6748C5.39614 28.6748 5.36971 28.6741 5.34331 28.6748ZM5.42262 30.7059C6.02268 30.7059 6.4858 31.171 6.48579 31.7711C6.48579 32.3711 6.02268 32.8342 5.42262 32.8342C4.82257 32.8342 4.35747 32.3711 4.35747 31.7711C4.35747 31.171 4.82257 30.7059 5.42262 30.7059ZM5.73007 40.6513C5.67949 40.6512 5.62963 40.6514 5.57932 40.6533C3.83124 40.7198 2.2564 41.915 1.78681 43.6822C1.23872 45.7428 0.684611 47.8063 0.136509 49.8669C-0.441329 52.0415 0.869505 54.2951 3.04436 54.8832L3.86356 55.1056C3.88397 55.3308 3.92267 55.5582 3.98258 55.7839L5.62495 61.9685C6.20336 64.1423 8.46557 65.4413 10.6393 64.8546L10.681 64.842C10.6891 64.841 10.6982 64.8389 10.7067 64.8389C10.7548 64.8263 10.8023 64.8105 10.8496 64.797L25.3036 60.8973L39.8865 64.8287C39.8984 64.8317 39.9104 64.835 39.9222 64.8413C39.9232 64.8416 39.9252 64.8433 39.9263 64.8433L39.9818 64.859C42.1555 65.4457 44.4197 64.1469 44.9981 61.973L46.6464 55.7883C46.7054 55.566 46.7435 55.3384 46.7635 55.11L47.5847 54.8876C49.7595 54.3005 51.0625 52.0465 50.4846 49.8713L48.8442 43.6866C48.2658 41.5128 46.0016 40.214 43.8279 40.8006L25.3275 45.7952L6.80128 40.8006C6.44487 40.7043 6.08442 40.6564 5.73017 40.6561L5.73007 40.6513ZM44.9742 42.6805C45.8569 42.712 46.6394 43.3096 46.8784 44.2078L48.5287 50.3845C48.825 51.4994 48.1736 52.6243 47.051 52.9274L13.6047 61.9545C13.7722 61.3435 13.8001 60.6851 13.6582 60.0324L23.7365 57.3129C24.28 57.1652 24.5994 56.602 24.4486 56.0594C24.3008 55.5197 23.7451 55.2014 23.2049 55.3473L19.8369 56.2578C19.6583 55.0637 20.4262 53.8924 21.7193 53.6316L30.2505 51.3227C30.7932 51.1785 31.1159 50.6195 30.9705 50.0771C30.8227 49.5373 30.267 49.219 29.7268 49.3649L21.3146 51.6362C18.8987 52.1235 17.4295 54.5068 17.8712 56.7874L13.1266 58.0687L11.9206 53.6614C11.7221 52.931 11.3353 52.2985 10.8257 51.8027L44.3534 42.7539C44.5622 42.6976 44.7705 42.6733 44.9742 42.6805ZM5.80742 42.6837C5.9599 42.6868 6.11275 42.712 6.26958 42.7533L21.4238 46.8433L15.5128 48.44L7.22168 46.2165C6.67921 46.071 6.12048 46.3938 5.97603 46.9365C5.83055 47.479 6.1533 48.0358 6.69604 48.1802L11.6092 49.4932L7.09473 50.7111C7.02659 50.7269 6.95851 50.7427 6.89043 50.7587C6.85266 50.7713 6.81558 50.7808 6.77936 50.7984C5.58659 51.1566 4.66615 52.0212 4.19481 53.0914L3.57793 52.9266C2.45545 52.623 1.80424 51.4976 2.1002 50.3838C2.64829 48.3232 3.19446 46.2677 3.74257 44.2071C3.98166 43.3074 4.77672 42.719 5.65469 42.6857C5.70547 42.6836 5.7566 42.6826 5.80742 42.6837ZM40.8743 46.4127C40.7858 46.4131 40.6978 46.4253 40.6125 46.4473L34.9594 47.9608C34.4159 48.105 34.0932 48.6635 34.2394 49.2064C34.3837 49.7489 34.9407 50.0715 35.483 49.9265L41.1361 48.4031C41.6786 48.2588 42.0011 47.7018 41.8561 47.1594C41.7352 46.7171 41.3329 46.4117 40.8743 46.4127ZM7.93179 52.6509C8.86472 52.6383 9.70942 53.2525 9.9649 54.1921L11.645 60.3629C11.9452 61.4665 11.3053 62.5786 10.189 62.874C10.1809 62.8771 10.1732 62.8771 10.1653 62.8803L10.1157 62.8961C9.00203 63.1965 7.8829 62.5476 7.58872 61.4422L5.94635 55.2654C5.65019 54.1507 6.29339 53.0257 7.41616 52.7225L7.4578 52.7099C7.61689 52.6715 7.77537 52.6525 7.93179 52.6509ZM44.5676 55.6957L43.0403 61.4419C42.7463 62.5475 41.629 63.1965 40.5153 62.8959L40.4894 62.8895C40.473 62.8864 40.4568 62.8832 40.4399 62.8738C39.3236 62.5783 38.6777 61.4663 38.978 60.3626L39.9103 56.953L44.5676 55.6957ZM37.6352 57.5681L37.0203 59.8293C36.8246 60.5486 36.8393 61.279 37.0244 61.9536L29.2072 59.8431L37.6352 57.5681Z" fill="white" stroke="white" stroke-width="7.55905" mask="url(#path-1-inside-1_995_7026)"/>
</svg>
