<svg width="39" height="41" viewBox="0 0 39 41" fill="none" xmlns="http://www.w3.org/2000/svg">
<path d="M5.8549 36.5647C11.8609 34.0247 16.3351 31.1023 19.3281 27.6592C22.4086 24.1156 23.9 20.0429 23.9 15.3367C23.9 12.4896 22.7495 9.76088 20.7044 7.75034C18.6597 5.74008 15.8881 4.61222 13 4.61222L12.9986 4.61222C11.2882 4.61695 9.62031 5.14163 8.22366 6.11545C6.82689 7.08934 5.76933 8.46514 5.1975 10.0552L4.97817 10.6651L5.62375 10.7225C6.53255 10.8032 7.39706 11.1418 8.11228 11.6959C8.82741 12.2499 9.36225 12.9953 9.65308 13.8408C9.94388 14.6861 9.97855 15.596 9.75301 16.4602C9.52746 17.3244 9.05107 18.1068 8.38044 18.7117C7.70972 19.3166 6.8737 19.7178 5.9737 19.8652C5.07367 20.0126 4.14962 19.8997 3.31422 19.5406C2.47889 19.1815 1.76897 18.5922 1.26986 17.8454C0.770992 17.099 0.503879 16.2271 0.5 15.3356V12.7805C0.5 9.52632 1.81486 6.40362 4.15814 4.09989C6.50172 1.79587 9.68207 0.5 13 0.5C17.0075 0.5 20.8492 2.06518 23.6803 4.84855C26.5112 7.63165 28.1 11.4045 28.1 15.3367C28.1 20.8852 26.3901 25.7043 22.9153 29.8706C19.5068 33.9573 14.3802 37.4392 7.44413 40.3473L5.8549 36.5647ZM35.1 3.05611C35.7743 3.05611 36.4328 3.25274 36.9922 3.62018C37.5515 3.98757 37.9861 4.50885 38.2424 5.11714C38.4986 5.72533 38.5655 6.39406 38.435 7.03913C38.3045 7.68425 37.9821 8.27803 37.5072 8.74489C37.0322 9.21184 36.426 9.53077 35.7649 9.66006C35.1037 9.78936 34.4184 9.72293 33.7961 9.4695C33.1739 9.21611 32.6434 8.78757 32.2708 8.23937C31.8983 7.69127 31.7 7.04779 31.7 6.39027C31.7 5.50877 32.0561 4.66162 32.6928 4.03566C33.3298 3.40942 34.1955 3.05611 35.1 3.05611ZM35.1 18.3928C35.7743 18.3928 36.4328 18.5894 36.9922 18.9568C37.5515 19.3242 37.9861 19.8455 38.2424 20.4538C38.4986 21.062 38.5655 21.7307 38.435 22.3758C38.3045 23.0209 37.9821 23.6147 37.5072 24.0815C37.0322 24.5485 36.426 24.8674 35.7649 24.9967C35.1037 25.126 34.4184 25.0596 33.7961 24.8062C33.1739 24.5528 32.6434 24.1242 32.2708 23.576C31.8983 23.0279 31.7 22.3845 31.7 21.7269C31.7 20.8454 32.0561 19.9983 32.6928 19.3723C33.3298 18.7461 34.1955 18.3928 35.1 18.3928Z" fill="white" stroke="white"/>
</svg>
