<svg width="52" height="44" viewBox="0 0 52 44" fill="none" xmlns="http://www.w3.org/2000/svg">
<path d="M25.0436 31.8099C25.0978 31.8556 25.1569 31.8967 25.2202 31.9329L25.3166 31.9773C25.3889 32.0168 25.4692 32.0446 25.5534 32.0593L25.6537 32.0832C25.8075 32.109 25.9656 32.109 26.1194 32.0832L26.2237 32.0559L26.3442 32.0251C26.3855 32.0089 26.4257 31.9906 26.4646 31.9705L26.5489 31.9295C26.6153 31.8915 26.6772 31.848 26.7335 31.7997L37.5353 22.6174C37.6701 22.5282 37.781 22.4156 37.8607 22.2871C37.9404 22.1586 37.9871 22.0172 37.9977 21.8722C38.0083 21.7272 37.9825 21.5819 37.9221 21.446C37.8617 21.3101 37.768 21.1867 37.6473 21.084C37.5266 20.9813 37.3816 20.9015 37.2219 20.8501C37.0622 20.7987 36.8915 20.7768 36.7211 20.7858C36.5507 20.7948 36.3845 20.8346 36.2335 20.9024C36.0826 20.9702 35.9503 21.0646 35.8454 21.1793L27.0988 28.6125V1.0248C27.0988 0.753009 26.9719 0.492346 26.7461 0.300158C26.5203 0.10797 26.214 0 25.8946 0C25.5752 0 25.2689 0.10797 25.0431 0.300158C24.8172 0.492346 24.6904 0.753009 24.6904 1.0248V28.6125L15.9438 21.1793C15.7121 21.0259 15.4225 20.9497 15.1295 20.9652C14.8365 20.9807 14.5603 21.0868 14.3527 21.2634C14.1451 21.4401 14.0205 21.6752 14.0023 21.9245C13.9841 22.1738 14.0736 22.4203 14.2538 22.6174L25.0436 31.8099Z" fill="white"/>
<path d="M50.7812 30.4121C50.458 30.4121 50.148 30.5189 49.9195 30.709C49.6909 30.8992 49.5625 31.157 49.5625 31.4259V38.8601C49.5625 39.6667 49.1773 40.4403 48.4916 41.0107C47.8059 41.581 46.8759 41.9014 45.9062 41.9014H6.09375C5.12405 41.9014 4.19407 41.581 3.50839 41.0107C2.82271 40.4403 2.4375 39.6667 2.4375 38.8601V31.4259C2.4375 31.157 2.3091 30.8992 2.08054 30.709C1.85198 30.5189 1.54198 30.4121 1.21875 30.4121C0.895517 30.4121 0.585524 30.5189 0.356964 30.709C0.128404 30.8992 0 31.157 0 31.4259L0 38.8601C0 40.2045 0.642018 41.4938 1.78482 42.4443C2.92762 43.3949 4.47759 43.929 6.09375 43.929H45.9062C47.5224 43.929 49.0724 43.3949 50.2152 42.4443C51.358 41.4938 52 40.2045 52 38.8601V31.4259C52 31.157 51.8716 30.8992 51.643 30.709C51.4145 30.5189 51.1045 30.4121 50.7812 30.4121Z" fill="white"/>
</svg>
