<svg width="62" height="34" viewBox="0 0 62 34" fill="none" xmlns="http://www.w3.org/2000/svg">
<path d="M13.1727 17.259V17.9273V17.9291V17.9309V17.9327V17.9345V17.9362V17.938V17.9398V17.9415V17.9433V17.945V17.9468V17.9485V17.9502V17.9519V17.9537V17.9554V17.9571V17.9588V17.9604V17.9621V17.9638V17.9655V17.9671V17.9688V17.9704V17.9721V17.9737V17.9753V17.9769V17.9785V17.9802V17.9818V17.9834V17.9849V17.9865V17.9881V17.9897V17.9912V17.9928V17.9944V17.9959V17.9974V17.999V18.0005V18.002V18.0035V18.0051V18.0066V18.0081V18.0096V18.011V18.0125V18.014V18.0155V18.0169V18.0184V18.0199V18.0213V18.0228V18.0242V18.0256V18.0271V18.0285V18.0299V18.0313V18.0327V18.0341V18.0355V18.0369V18.0383V18.0397V18.0411V18.0424V18.0438V18.0452V18.0465V18.0479V18.0492V18.0505V18.0519V18.0532V18.0545V18.0559V18.0572V18.0585V18.0598V18.0611V18.0624V18.0637V18.065V18.0663V18.0675V18.0688V18.0701V18.0714V18.0726V18.0739V18.0751V18.0764V18.0776V18.0789V18.0801V18.0813V18.0825V18.0838V18.085V18.0862V18.0874V18.0886V18.0898V18.091V18.0922V18.0934V18.0946V18.0958V18.097V18.0981V18.0993V18.1005V18.1016V18.1028V18.1039V18.1051V18.1062V18.1074V18.1085V18.1097V18.1108V18.1119V18.1131V18.1142V18.1153V18.1164V18.1175V18.1186V18.1197V18.1208V18.1219V18.123V18.1241V18.1252V18.1263V18.1274V18.1285V18.1295V18.1306V18.1317V18.1328V18.1338V18.1349V18.136V18.137V18.1381V18.1391V18.1402V18.1412V18.1422V18.1433V18.1443V18.1454V18.1464V18.1474V18.1484V18.1495V18.1505V18.1515V18.1525V18.1535V18.1545V18.1556V18.1566V18.1576V18.1586V18.1596V18.1606V18.1616V18.1626V18.1635V18.1645V18.1655V18.1665V18.1675V18.1685V18.1694V18.1704V18.1714V18.1724V18.1733V18.1743V18.1753V18.1762V18.1772V18.1782V18.1791V18.1801V18.181V18.182V18.1829V18.1839V18.1848V18.1858V18.1867V18.1877V18.1886V18.1896V18.1905V18.1915V18.1924V18.1933V18.1943V18.1952V18.1961V18.1971V18.198V18.1989V18.1998V18.2008V18.2017V18.2026V18.2035V18.2045V18.2054V18.2063V18.2072V18.2082V18.2091V18.21V18.2109V18.2118V18.2127V18.2137V18.2146V18.2155V18.2164V18.2173V18.2182V18.2191V18.22V18.2209V18.2219V18.2228V18.2237V18.2246V18.2255V18.2264V18.2273V18.2282V18.2291V18.23V18.2309V18.2318V18.2327V18.2336V18.2346V18.2355V18.2364V18.2373V18.2382V18.2391V18.24V18.2409V18.2418V18.2427V18.2436V18.2445V18.2454V18.2463V18.2472V18.2481V18.2491V18.25V18.2509V18.2518V18.2527V18.2536V18.2545V18.2554V18.2563V18.2572V18.2582V18.2591V18.26V18.2609V18.2618V18.2627V18.2637V18.2646V18.2655V18.2664V18.2673V18.2683V18.2692V18.2701V18.271V18.272V18.2729V18.2738V18.2747V18.2757V18.2766V18.2775V18.2785V18.2794V18.2803V18.2813V18.2822V18.2832V18.2841V18.285V18.286V18.2869V18.2879V18.2888V18.2898V18.2907V18.2917V18.2926V18.2936V18.2946V18.2955V18.2965V18.2975V18.2984V18.2994V18.3004V18.3013V18.3023V18.3033V18.3043V18.3052V18.3062V18.3072V18.3082V18.3092V18.3102V18.3112V18.3122V18.3132V18.3142V18.3152V18.3162V18.3172V18.3182V18.3192V18.3202V18.3212V18.3222V18.3233V18.3243V18.3253V18.3263V18.3274V18.3284V18.3294V18.3305V18.3315V18.3326V18.3336V18.3347V18.3357V18.3368V18.3378V18.3389V18.34V18.341V18.3421V18.3432V18.3443V18.3453V18.3464V18.3475V18.3486V18.3497V18.3508V18.3519V18.353V18.3541V18.3552V18.3563V18.3574V18.3586V18.3597V18.3608V18.3619V18.3631V18.3642V18.3653V18.3665V18.3676V18.3688V18.3699V18.3711V18.3723V18.3734V18.3746V18.3758V18.377V18.3781V18.3793V18.3805V18.3817V18.3829V18.3841V18.3853V18.3865V18.3877V18.389V18.3902V18.3914V18.3926V18.3939V18.3951V18.3964V18.3976V18.3989V18.4001V18.4014V18.4026V18.4039V18.4052V18.4065V18.4078V18.409V18.4103V18.4116V18.4129V18.4142V18.4156V18.4169V18.4182V18.4195V18.4208V18.4222V18.4235V18.4249V18.4262V18.4273C13.4547 18.9889 13.7258 19.4977 14.2249 20.0083C17.5568 22.1218 20.3448 23.1709 22.9708 23.6961C25.6193 24.2258 28.1206 24.2273 30.9091 24.2273C33.698 24.2273 36.1959 24.2256 38.8407 23.6588C41.475 23.0943 44.2747 21.9637 47.6274 19.6778L47.6553 19.6588L47.6855 19.6437C48.0921 19.4404 48.3474 19.0296 48.6455 18.1544L13.1727 17.259ZM13.1727 17.259L12.5316 17.4476M13.1727 17.259L12.5316 17.4476M12.5316 17.4476C9.86481 18.232 8.18731 19.1034 7.16467 19.8397C6.65368 20.2076 6.30108 20.5455 6.07047 20.8267C5.95556 20.9668 5.86638 21.0985 5.80323 21.2178C5.75052 21.3175 5.68182 21.4706 5.68182 21.6364C5.68182 22.0378 5.94281 22.4034 6.22723 22.6949M12.5316 17.4476L6.22723 22.6949M6.22723 22.6949C6.53436 23.0096 6.97255 23.3422 7.52372 23.6804M6.22723 22.6949L7.52372 23.6804M7.52372 23.6804C8.62931 24.3589 10.2522 25.0981 12.364 25.7825M7.52372 23.6804L12.364 25.7825M12.364 25.7825C16.5918 27.1526 22.8262 28.3182 30.9091 28.3182M12.364 25.7825L30.9091 28.3182M30.9091 28.3182C38.9915 28.3182 45.2276 27.1527 49.4581 25.7425L30.9091 28.3182ZM48.3599 11.588L48.4436 11.8511L48.7109 11.9204C52.8531 12.9943 56.025 14.3636 58.1513 16.0049C60.2655 17.6369 61.3182 19.5121 61.3182 21.6364C61.3182 23.5426 60.4062 25.2321 58.7422 26.7157C57.0712 28.2057 54.6659 29.4633 51.7627 30.4756C45.959 32.4992 38.2914 33.5 30.9091 33.5C23.5268 33.5 15.8592 32.4992 10.0555 30.4756C7.15224 29.4633 4.74697 28.2057 3.07594 26.7157C1.41203 25.2321 0.5 23.5426 0.5 21.6364C0.5 19.5121 1.55268 17.6369 3.66689 16.0049C5.79316 14.3636 8.96511 12.9943 13.1073 11.9204L13.3703 11.8522L13.4562 11.5945C15.539 5.34588 22.7357 0.5 30.9091 0.5C39.0939 0.5 46.2781 5.04517 48.3599 11.588ZM18.0552 14.4292L18.0455 14.4778V14.5273V14.5291V14.5309V14.5327V14.5345V14.5363V14.5381V14.5399V14.5418V14.5436V14.5454V14.5472V14.549V14.5508V14.5526V14.5544V14.5562V14.5581V14.5599V14.5617V14.5635V14.5653V14.5671V14.5689V14.5707V14.5725V14.5744V14.5762V14.578V14.5798V14.5816V14.5834V14.5852V14.587V14.5888V14.5907V14.5925V14.5943V14.5961V14.5979V14.5997V14.6015V14.6033V14.6051V14.607V14.6088V14.6106V14.6124V14.6142V14.616V14.6178V14.6196V14.6214V14.6233V14.6251V14.6269V14.6287V14.6305V14.6323V14.6341V14.6359V14.6377V14.6396V14.6414V14.6432V14.645V14.6468V14.6486V14.6504V14.6522V14.654V14.6559V14.6577V14.6595V14.6613V14.6631V14.6649V14.6667V14.6685V14.6703V14.6722V14.674V14.6758V14.6776V14.6794V14.6812V14.683V14.6848V14.6866V14.6885V14.6903V14.6921V14.6939V14.6957V14.6975V14.6993V14.7011V14.7029V14.7048V14.7066V14.7084V14.7102V14.712V14.7138V14.7156V14.7174V14.7192V14.7211V14.7229V14.7247V14.7265V14.7283V14.7301V14.7319V14.7337V14.7355V14.7374V14.7392V14.741V14.7428V14.7446V14.7464V14.7482V14.75V14.7518V14.7537V14.7555V14.7573V14.7591V14.7609V14.7627V14.7645V14.7663V14.7681V14.77V14.7718V14.7736V14.7754V14.7772V14.779V14.7808V14.7826V14.7844V14.7863V14.7881V14.7899V14.7917V14.7935V14.7953V14.7971V14.7989V14.8007V14.8026V14.8044V14.8062V14.808V14.8098V14.8116V14.8134V14.8152V14.817V14.8189V14.8207V14.8225V14.8243V14.8261V14.8279V14.8297V14.8315V14.8333V14.8352V14.837V14.8388V14.8406V14.8424V14.8442V14.846V14.8478V14.8496V14.8515V14.8533V14.8551V14.8569V14.8587V14.8605V14.8623V14.8641V14.8659V14.8678V14.8696V14.8714V14.8732V14.875V14.8768V14.8786V14.8804V14.8822V14.8841V14.8859V14.8877V14.8895V14.8913V14.8931V14.8949V14.8967V14.8985V14.9004V14.9022V14.904V14.9058V14.9076V14.9094V14.9112V14.913V14.9148V14.9167V14.9185V14.9203V14.9221V14.9239V14.9257V14.9275V14.9293V14.9311V14.933V14.9348V14.9366V14.9384V14.9402V14.942V14.9438V14.9456V14.9474V14.9493V14.9511V14.9529V14.9547V14.9565V14.9583V14.9601V14.9619V14.9637V14.9656V14.9674V14.9692V14.971V14.9728V14.9746V14.9764V14.9782V14.98V14.9819V14.9837V14.9855V14.9873V14.9891V14.9909V14.9927V14.9945V14.9963V14.9982V15V15.0018V15.0036V15.0054V15.0072V15.009V15.0108V15.0126V15.0145V15.0163V15.0181V15.0199V15.0217V15.0235V15.0253V15.0271V15.0289V15.0308V15.0326V15.0344V15.0362V15.038V15.0398V15.0416V15.0434V15.0452V15.0471V15.0489V15.0507V15.0525V15.0543V15.0561V15.0579V15.0597V15.0615V15.0634V15.0652V15.067V15.0688V15.0706V15.0724V15.0742V15.076V15.0778V15.0797V15.0815V15.0833V15.0851V15.0869V15.0887V15.0905V15.0923V15.0941V15.096V15.0978V15.0996V15.1014V15.1032V15.105V15.1068V15.1086V15.1104V15.1123V15.1141V15.1159V15.1177V15.1195V15.1213V15.1231V15.1249V15.1267V15.1286V15.1304V15.1322V15.134V15.1358V15.1376V15.1394V15.1412V15.143V15.1449V15.1467V15.1485V15.1503V15.1521V15.1539V15.1557V15.1575V15.1593V15.1611V15.163V15.1648V15.1666V15.1684V15.1702V15.172V15.1738V15.1756V15.1775V15.1793V15.1811V15.1829V15.1847V15.1865V15.1883V15.1901V15.1919V15.1937V15.1956V15.1974V15.1992V15.201V15.2028V15.2046V15.2064V15.2082V15.21V15.2119V15.2137V15.2155V15.2173V15.2191V15.2209V15.2227V15.2245V15.2263V15.2282V15.23V15.2318V15.2336V15.2354V15.2372V15.239V15.2408V15.2426V15.2445V15.2463V15.2481V15.2499V15.2517V15.2535V15.2553V15.2571V15.2589V15.2608V15.2626V15.2644V15.2662V15.268V15.2698V15.2716V15.2734V15.2752V15.2771V15.2789V15.2807V15.2825V15.2843V15.2861V15.2879V15.2897V15.2915V15.2934V15.2952V15.297V15.2988V15.3006V15.3024V15.3042V15.306V15.3078V15.3097V15.3115V15.3133V15.3151V15.3169V15.3187V15.3205V15.3223V15.3241V15.326V15.3278V15.3296V15.3314V15.3332V15.335V15.3368V15.3386V15.3404V15.3423V15.3441V15.3459V15.3477V15.3495V15.3513V15.3531V15.3549V15.3567V15.3586V15.3604V15.3622V15.364V15.3658V15.3676V15.3694V15.3712V15.373V15.3749V15.3767V15.3785V15.3803V15.3821V15.3839V15.3857V15.3875V15.3893V15.3912V15.393V15.3948V15.3966V15.3984V15.4002V15.402V15.4038V15.4056V15.4075V15.4093V15.4111V15.4129V15.4147V15.4165V15.4183V15.4201V15.4219V15.4238V15.4256V15.4274V15.4292V15.431V15.4328V15.4346V15.4364V15.4382V15.4401V15.4419V15.4437V15.4455V15.4473V15.4491V15.4509V15.4527V15.4545V15.7636V16.0467L18.2882 16.1924C20.6486 17.6086 22.5591 18.3292 24.521 18.6895C26.4591 19.0455 28.4302 19.0455 30.8773 19.0455H30.9091H30.9409C33.388 19.0455 35.3591 19.0455 37.2971 18.6895C39.259 18.3292 41.1696 17.6086 43.53 16.1924L43.7727 16.0467V15.7636V15.4545V15.4527V15.4509V15.4491V15.4473V15.4455V15.4437V15.4419V15.4401V15.4382V15.4364V15.4346V15.4328V15.431V15.4292V15.4274V15.4256V15.4238V15.4219V15.4201V15.4183V15.4165V15.4147V15.4129V15.4111V15.4093V15.4075V15.4056V15.4038V15.402V15.4002V15.3984V15.3966V15.3948V15.393V15.3912V15.3893V15.3875V15.3857V15.3839V15.3821V15.3803V15.3785V15.3767V15.3749V15.373V15.3712V15.3694V15.3676V15.3658V15.364V15.3622V15.3604V15.3586V15.3567V15.3549V15.3531V15.3513V15.3495V15.3477V15.3459V15.3441V15.3423V15.3404V15.3386V15.3368V15.335V15.3332V15.3314V15.3296V15.3278V15.326V15.3241V15.3223V15.3205V15.3187V15.3169V15.3151V15.3133V15.3115V15.3097V15.3078V15.306V15.3042V15.3024V15.3006V15.2988V15.297V15.2952V15.2934V15.2915V15.2897V15.2879V15.2861V15.2843V15.2825V15.2807V15.2789V15.2771V15.2752V15.2734V15.2716V15.2698V15.268V15.2662V15.2644V15.2626V15.2608V15.2589V15.2571V15.2553V15.2535V15.2517V15.2499V15.2481V15.2463V15.2445V15.2426V15.2408V15.239V15.2372V15.2354V15.2336V15.2318V15.23V15.2282V15.2263V15.2245V15.2227V15.2209V15.2191V15.2173V15.2155V15.2137V15.2119V15.21V15.2082V15.2064V15.2046V15.2028V15.201V15.1992V15.1974V15.1956V15.1937V15.1919V15.1901V15.1883V15.1865V15.1847V15.1829V15.1811V15.1793V15.1775V15.1756V15.1738V15.172V15.1702V15.1684V15.1666V15.1648V15.163V15.1611V15.1593V15.1575V15.1557V15.1539V15.1521V15.1503V15.1485V15.1467V15.1449V15.143V15.1412V15.1394V15.1376V15.1358V15.134V15.1322V15.1304V15.1286V15.1267V15.1249V15.1231V15.1213V15.1195V15.1177V15.1159V15.1141V15.1123V15.1104V15.1086V15.1068V15.105V15.1032V15.1014V15.0996V15.0978V15.096V15.0941V15.0923V15.0905V15.0887V15.0869V15.0851V15.0833V15.0815V15.0797V15.0778V15.076V15.0742V15.0724V15.0706V15.0688V15.067V15.0652V15.0634V15.0615V15.0597V15.0579V15.0561V15.0543V15.0525V15.0507V15.0489V15.0471V15.0452V15.0434V15.0416V15.0398V15.038V15.0362V15.0344V15.0326V15.0308V15.0289V15.0271V15.0253V15.0235V15.0217V15.0199V15.0181V15.0163V15.0145V15.0126V15.0108V15.009V15.0072V15.0054V15.0036V15.0018V15V14.9982V14.9963V14.9945V14.9927V14.9909V14.9891V14.9873V14.9855V14.9837V14.9819V14.98V14.9782V14.9764V14.9746V14.9728V14.971V14.9692V14.9674V14.9656V14.9637V14.9619V14.9601V14.9583V14.9565V14.9547V14.9529V14.9511V14.9493V14.9474V14.9456V14.9438V14.942V14.9402V14.9384V14.9366V14.9348V14.933V14.9311V14.9293V14.9275V14.9257V14.9239V14.9221V14.9203V14.9185V14.9167V14.9148V14.913V14.9112V14.9094V14.9076V14.9058V14.904V14.9022V14.9004V14.8985V14.8967V14.8949V14.8931V14.8913V14.8895V14.8877V14.8859V14.8841V14.8822V14.8804V14.8786V14.8768V14.875V14.8732V14.8714V14.8696V14.8678V14.8659V14.8641V14.8623V14.8605V14.8587V14.8569V14.8551V14.8533V14.8515V14.8496V14.8478V14.846V14.8442V14.8424V14.8406V14.8388V14.837V14.8352V14.8333V14.8315V14.8297V14.8279V14.8261V14.8243V14.8225V14.8207V14.8189V14.817V14.8152V14.8134V14.8116V14.8098V14.808V14.8062V14.8044V14.8026V14.8007V14.7989V14.7971V14.7953V14.7935V14.7917V14.7899V14.7881V14.7863V14.7844V14.7826V14.7808V14.779V14.7772V14.7754V14.7736V14.7718V14.77V14.7681V14.7663V14.7645V14.7627V14.7609V14.7591V14.7573V14.7555V14.7537V14.7518V14.75V14.7482V14.7464V14.7446V14.7428V14.741V14.7392V14.7374V14.7355V14.7337V14.7319V14.7301V14.7283V14.7265V14.7247V14.7229V14.7211V14.7192V14.7174V14.7156V14.7138V14.712V14.7102V14.7084V14.7066V14.7048V14.7029V14.7011V14.6993V14.6975V14.6957V14.6939V14.6921V14.6903V14.6885V14.6866V14.6848V14.683V14.6812V14.6794V14.6776V14.6758V14.674V14.6722V14.6703V14.6685V14.6667V14.6649V14.6631V14.6613V14.6595V14.6577V14.6559V14.654V14.6522V14.6504V14.6486V14.6468V14.645V14.6432V14.6414V14.6396V14.6377V14.6359V14.6341V14.6323V14.6305V14.6287V14.6269V14.6251V14.6233V14.6214V14.6196V14.6178V14.616V14.6142V14.6124V14.6106V14.6088V14.607V14.6051V14.6033V14.6015V14.5997V14.5979V14.5961V14.5943V14.5925V14.5907V14.5888V14.587V14.5852V14.5834V14.5816V14.5798V14.578V14.5762V14.5744V14.5725V14.5707V14.5689V14.5671V14.5653V14.5635V14.5617V14.5599V14.5581V14.5562V14.5544V14.5526V14.5508V14.549V14.5472V14.5454V14.5436V14.5418V14.5399V14.5381V14.5363V14.5345V14.5327V14.5309V14.5291V14.5273V14.4778L43.763 14.4292C42.7751 9.48985 37.2507 5.68182 30.9091 5.68182C24.5675 5.68182 19.043 9.48985 18.0552 14.4292ZM49.1455 17.6182L49.2865 17.1385L48.6455 16.9499V17.6182V17.62V17.6218V17.6236V17.6254V17.6271V17.6289V17.6307V17.6324V17.6342V17.6359V17.6377V17.6394V17.6411V17.6429V17.6446V17.6463V17.648V17.6497V17.6513V17.653V17.6547V17.6564V17.658V17.6597V17.6613V17.663V17.6646V17.6662V17.6678V17.6695V17.6711V17.6727V17.6743V17.6758V17.6774V17.679V17.6806V17.6821V17.6837V17.6853V17.6868V17.6883V17.6899V17.6914V17.6929V17.6945V17.696V17.6975V17.699V17.7005V17.702V17.7034V17.7049V17.7064V17.7079V17.7093V17.7108V17.7122V17.7137V17.7151V17.7165V17.718V17.7194V17.7208V17.7222V17.7236V17.725V17.7264V17.7278V17.7292V17.7306V17.732V17.7333V17.7347V17.7361V17.7374V17.7388V17.7401V17.7415V17.7428V17.7441V17.7454V17.7468V17.7481V17.7494V17.7507V17.752V17.7533V17.7546V17.7559V17.7572V17.7584V17.7597V17.761V17.7623V17.7635V17.7648V17.766V17.7673V17.7685V17.7698V17.771V17.7722V17.7735V17.7747V17.7759V17.7771V17.7783V17.7795V17.7807V17.7819V17.7831V17.7843V17.7855V17.7867V17.7879V17.789V17.7902V17.7914V17.7925V17.7937V17.7948V17.796V17.7971V17.7983V17.7994V17.8006V17.8017V17.8028V17.804V17.8051V17.8062V17.8073V17.8084V17.8095V17.8106V17.8118V17.8129V17.8139V17.815V17.8161V17.8172V17.8183V17.8194V17.8205V17.8215V17.8226V17.8237V17.8247V17.8258V17.8269V17.8279V17.829V17.83V17.8311V17.8321V17.8332V17.8342V17.8352V17.8363V17.8373V17.8383V17.8394V17.8404V17.8414V17.8424V17.8434V17.8444V17.8455V17.8465V17.8475V17.8485V17.8495V17.8505V17.8515V17.8525V17.8535V17.8545V17.8554V17.8564V17.8574V17.8584V17.8594V17.8604V17.8613V17.8623V17.8633V17.8642V17.8652V17.8662V17.8671V17.8681V17.8691V17.87V17.871V17.8719V17.8729V17.8739V17.8748V17.8758V17.8767V17.8776V17.8786V17.8795V17.8805V17.8814V17.8824V17.8833V17.8842V17.8852V17.8861V17.887V17.888V17.8889V17.8898V17.8908V17.8917V17.8926V17.8935V17.8945V17.8954V17.8963V17.8972V17.8981V17.8991V17.9V17.9009V17.9018V17.9027V17.9036V17.9046V17.9055V17.9064V17.9073V17.9082V17.9091V17.91V17.9109V17.9119V17.9128V17.9137V17.9146V17.9155V17.9164V17.9173V17.9182V17.9191V17.92V17.9209V17.9218V17.9227V17.9236V17.9246V17.9255V17.9264V17.9273V17.9282V17.9291V17.93V17.9309V17.9318V17.9327V17.9336V17.9345V17.9354V17.9363V17.9372V17.9381V17.9391V17.94V17.9409V17.9418V17.9427V17.9436V17.9445V17.9454V17.9463V17.9472V17.9482V17.9491V17.95V17.9509V17.9518V17.9527V17.9536V17.9546V17.9555V17.9564V17.9573V17.9582V17.9592V17.9601V17.961V17.9619V17.9629V17.9638V17.9647V17.9656V17.9666V17.9675V17.9684V17.9694V17.9703V17.9712V17.9722V17.9731V17.9741V17.975V17.976V17.9769V17.9778V17.9788V17.9797V17.9807V17.9816V17.9826V17.9836V17.9845V17.9855V17.9864V17.9874V17.9884V17.9893V17.9903V17.9913V17.9922V17.9932V17.9942V17.9952V17.9961V17.9971V17.9981V17.9991V18.0001V18.0011V18.0021V18.0031V18.0041V18.0051V18.0061V18.0071V18.0081V18.0091V18.0101V18.0111V18.0121L49.1455 17.6182Z" fill="white" stroke="white"/>
</svg>
