<svg width="70" height="42" viewBox="0 0 70 42" fill="none" xmlns="http://www.w3.org/2000/svg">
<path d="M1.88531 19.3067C5.51857 19.3067 8.77506 18.345 11.6894 16.3966C14.603 14.4395 16.8658 11.7251 18.4768 8.2536C20.088 11.7251 22.3463 14.4479 25.2299 16.3966C28.1398 18.3537 31.3665 19.3067 34.9653 19.3067H35.034C38.6337 19.3067 41.8559 18.345 44.7701 16.3966C47.6837 14.4395 49.9465 11.7251 51.5232 8.2536C53.1343 11.7251 55.4314 14.4395 58.345 16.3966C61.2587 18.3452 64.5152 19.3067 68.1147 19.3067C69.1773 19.3067 70 18.3111 70 17.0688C70 15.835 69.1773 14.882 68.1147 14.882C64.4807 14.882 61.3273 13.6822 58.6536 11.2913C55.9798 8.89172 54.2312 5.66693 53.4429 1.63369L53.3741 1.55717C53.3741 1.48064 53.3396 1.39547 53.271 1.31895C53.271 1.27637 53.2029 1.19985 53.2029 1.15726C53.2029 1.11467 53.1685 1.03815 53.1341 0.995569L52.9966 0.842394C52.9966 0.723288 52.963 0.680703 52.8599 0.680703C52.8599 0.638118 52.8255 0.561597 52.7911 0.519012L52.5855 0.357318L52.448 0.238214C52.4144 0.238214 52.3457 0.161691 52.3112 0.161691C52.2768 0.119106 52.2082 0.0851709 52.1057 0.0851709L52.037 0.000134022H51.9681H51.7283H51.5227H51.3852H51.1797H51.1109L51.0428 0.0851709C50.9397 0.0851709 50.8709 0.119239 50.8365 0.161691C50.8021 0.161691 50.7342 0.204278 50.6998 0.238214C50.6654 0.238214 50.5278 0.357318 50.4942 0.357318C50.4942 0.399904 50.4599 0.442357 50.4255 0.442357L50.3223 0.518878L50.1855 0.680569L50.1168 0.842262L49.9793 0.995435L49.9112 1.15713C49.8768 1.19971 49.8424 1.27623 49.8424 1.31882C49.8081 1.35289 49.7736 1.43792 49.7736 1.55703C49.7392 1.55703 49.7048 1.59962 49.7048 1.63355C48.8485 5.6668 47.0999 8.89172 44.4605 11.2911C41.8204 13.6822 38.6669 14.8819 35.033 14.8819C31.3654 14.8819 28.2054 13.6907 25.5375 11.2911C22.8915 8.90862 21.1495 5.6668 20.2924 1.63355V1.55703C20.2579 1.51445 20.2243 1.43793 20.2243 1.31882C20.1899 1.27623 20.1556 1.19971 20.1556 1.15713L20.0181 0.995435C20.0181 0.961367 19.9837 0.876331 19.95 0.842262L19.8125 0.680569L19.6758 0.518878L19.5038 0.357186C19.4694 0.357186 19.4015 0.323118 19.367 0.23808C19.3326 0.23808 19.1951 0.161559 19.1608 0.161559C19.1272 0.118974 19.0584 0.0850389 19.024 0.0850389C18.9896 0.0850389 18.9208 0 18.8865 0H18.8185H18.6123H18.4755H18.2699H18.0301H17.9613L17.8926 0.0850389C17.7894 0.0850389 17.7215 0.119107 17.687 0.161559L17.5496 0.23808C17.5151 0.23808 17.4472 0.357186 17.4128 0.357186L17.2753 0.518878C17.1729 0.518878 17.1385 0.561463 17.1385 0.680569L17.001 0.842262L16.8642 0.995435L16.7955 1.15713C16.7955 1.23365 16.6243 1.39534 16.6243 1.55703V1.63355C15.7672 5.6668 14.0128 8.8832 11.3449 11.2911C8.699 13.6737 5.5514 14.8819 1.88383 14.8819C0.82273 14.882 0 15.835 0 17.0687C0 18.311 0.82273 19.3067 1.88531 19.3067Z" fill="white"/>
<path d="M68.1148 37.5763C64.4809 37.5763 61.3194 36.3936 58.6537 33.9856C55.9711 31.5605 54.2313 28.3612 53.443 24.3706C53.443 24.328 53.3742 24.2514 53.3742 24.2089C53.3742 24.0897 53.3397 24.013 53.2711 23.9365L53.2031 23.7748C53.2031 23.7324 53.1342 23.6557 53.1342 23.6131L52.9967 23.4514C52.9967 23.3323 52.9631 23.2983 52.86 23.2983C52.86 23.2558 52.7912 23.1792 52.7912 23.1366C52.7569 23.1366 52.6201 23.0515 52.5856 23.0515L52.4482 22.8984C52.3801 22.8984 52.2426 22.7367 52.1059 22.7367H52.0372H51.9683C51.9339 22.6941 51.8316 22.6602 51.7285 22.6602H51.5229H51.3855C51.2831 22.6602 51.2143 22.6942 51.1799 22.7367H51.1112H51.043C51.0086 22.7367 50.8711 22.8132 50.8368 22.8132C50.8025 22.8132 50.7344 22.8558 50.7 22.8982L50.4944 23.0514L50.3225 23.1364L50.1857 23.2981L50.117 23.4513L49.9795 23.613C49.9795 23.6556 49.9115 23.7322 49.9115 23.7747C49.877 23.8173 49.8426 23.8939 49.8426 23.9364C49.8083 23.9706 49.7739 24.0896 49.7739 24.2088C49.7395 24.2513 49.7051 24.3279 49.7051 24.3705C48.8488 28.4037 47.0936 31.5774 44.4264 33.9855C41.7805 36.3679 38.6329 37.5761 35.0332 37.5761C31.3657 37.5761 28.2056 36.3849 25.5377 33.9855C22.8918 31.603 21.1498 28.4036 20.2926 24.3705V24.2088C20.2582 24.1746 20.2245 24.0556 20.2245 23.9364C20.1901 23.9364 20.1558 23.8939 20.1558 23.7747L20.0183 23.613C20.0183 23.5704 19.9839 23.4939 19.9503 23.4513L19.8128 23.2981L19.676 23.1364C19.6416 23.1364 19.5385 23.0514 19.5041 23.0514L19.3673 22.8982C19.3328 22.8982 19.1954 22.8132 19.161 22.8132C19.1274 22.8132 19.0587 22.7791 19.0242 22.7367H18.8868L18.8187 22.6602H18.6125H18.4757H18.2701H18.0303C18.0303 22.6942 17.9959 22.7367 17.9615 22.7367H17.8928C17.8584 22.7367 17.7217 22.8132 17.6873 22.8132L17.5498 22.8982L17.413 23.0514C17.3786 23.0514 17.3098 23.094 17.2755 23.1364L17.1387 23.2981L17.0012 23.4513L16.8644 23.613C16.8644 23.6556 16.83 23.7322 16.7957 23.7747C16.7957 23.8173 16.7613 23.8939 16.6925 23.9364C16.6925 23.9706 16.6245 24.1746 16.6245 24.2088V24.3705C15.7673 28.4037 14.0129 31.5774 11.3451 33.9855C8.69957 36.3679 5.55197 37.5761 1.8844 37.5761C0.82273 37.5763 0 38.572 0 39.8056C0 41.0479 0.82273 42.0009 1.88531 42.0009C5.48494 42.0009 8.74144 41.0479 11.655 39.0908C14.5686 37.1338 16.8657 34.4195 18.4768 30.9905C20.088 34.4196 22.3463 37.1425 25.2299 39.0908C28.1398 41.0566 31.3665 42.0009 34.9653 42.0009H35.034C38.6337 42.0009 41.8901 41.0479 44.8037 39.0908C47.718 37.1338 49.9465 34.4195 51.5232 30.9905C53.1343 34.4622 55.397 37.134 58.3105 39.0908C61.2242 41.0478 64.5151 42.0009 68.1147 42.0009C69.1773 42.0009 70 41.0479 70 39.8056C70.0001 38.572 69.1774 37.5763 68.1148 37.5763Z" fill="white"/>
</svg>
