<svg width="57" height="62" viewBox="0 0 57 62" fill="none" xmlns="http://www.w3.org/2000/svg">
<path d="M16.3724 43.6641C15.7027 43.6641 15.1596 44.2071 15.1596 44.8768V50.9406H12.7341V44.8768C12.7341 44.2071 12.191 43.6641 11.5214 43.6641C10.8517 43.6641 10.3086 44.2071 10.3086 44.8768V52.1534C10.3086 52.8231 10.8517 53.3662 11.5214 53.3662H12.7341V57.6108C12.7341 58.2805 13.2772 58.8236 13.9469 58.8236C14.6166 58.8236 15.1596 58.2805 15.1596 57.6108V53.3662H16.3724C17.0421 53.3662 17.5852 52.8231 17.5852 52.1534V44.8768C17.5852 44.207 17.0421 43.6641 16.3724 43.6641Z" fill="white"/>
<path d="M26.0755 43.6641C25.4058 43.6641 24.8628 44.2071 24.8628 44.8768V50.9406H22.4372V44.8768C22.4372 44.2071 21.8942 43.6641 21.2245 43.6641C20.5548 43.6641 20.0117 44.2071 20.0117 44.8768V52.1534C20.0117 52.8231 20.5548 53.3662 21.2245 53.3662H22.4372V57.6108C22.4372 58.2805 22.9803 58.8236 23.65 58.8236C24.3197 58.8236 24.8628 58.2805 24.8628 57.6108V53.3662H26.0755C26.7452 53.3662 27.2883 52.8231 27.2883 52.1534V44.8768C27.2883 44.207 26.7452 43.6641 26.0755 43.6641Z" fill="white"/>
<path d="M35.7826 43.6641C35.1129 43.6641 34.5698 44.2071 34.5698 44.8768V50.9406H32.1443V44.8768C32.1443 44.2071 31.6012 43.6641 30.9315 43.6641C30.2618 43.6641 29.7188 44.2071 29.7188 44.8768V52.1534C29.7188 52.8231 30.2618 53.3662 30.9315 53.3662H32.1443V57.6108C32.1443 58.2805 32.6874 58.8236 33.357 58.8236C34.0267 58.8236 34.5698 58.2805 34.5698 57.6108V53.3662H35.7826C36.4523 53.3662 36.9953 52.8231 36.9953 52.1534V44.8768C36.9953 44.207 36.4523 43.6641 35.7826 43.6641Z" fill="white"/>
<path d="M45.474 43.6641C44.8043 43.6641 44.2612 44.2071 44.2612 44.8768V50.9406H41.8357V44.8768C41.8357 44.2071 41.2926 43.6641 40.6229 43.6641C39.9532 43.6641 39.4102 44.2071 39.4102 44.8768V52.1534C39.4102 52.8231 39.9532 53.3662 40.6229 53.3662H41.8357V57.6108C41.8357 58.2805 42.3788 58.8236 43.0484 58.8236C43.7181 58.8236 44.2612 58.2805 44.2612 57.6108V53.3662H45.474C46.1437 53.3662 46.6867 52.8231 46.6867 52.1534V44.8768C46.6867 44.207 46.1437 43.6641 45.474 43.6641Z" fill="white"/>
<path d="M48.8744 21.8338H40.0377C38.0223 21.8338 36.3795 20.2147 36.3829 18.2274C36.3911 13.3566 34.4994 8.7768 31.0551 5.33146C23.9446 -1.77643 12.4399 -1.778 5.32731 5.33182C1.89203 8.76843 0 13.3368 0 18.1955V57.9135C0 60.0869 1.76809 61.855 3.94148 61.855C5.80174 61.855 7.36402 60.5591 7.77587 58.8231H49.2241C49.636 60.5591 51.1983 61.855 53.0585 61.855C55.2319 61.855 57 60.0869 57 57.9135V29.9593C56.9999 25.4787 53.3548 21.8338 48.8744 21.8338ZM18.1915 2.42956C26.8183 2.42956 33.9724 9.40634 33.9574 18.2231C33.9517 21.5527 36.6797 24.2593 40.0377 24.2593H48.8744C52.0174 24.2593 54.5743 26.8163 54.5743 29.9593V37.5997H2.42553V18.1955C2.42553 9.47984 9.4775 2.42956 18.1915 2.42956ZM49.1169 56.3975H7.88296V48.5146C7.88296 47.1771 8.97105 46.089 10.3085 46.089H46.6914C48.0288 46.089 49.1169 47.1771 49.1169 48.5146V56.3975ZM53.0584 59.4294C52.2224 59.4294 51.5424 58.7494 51.5424 57.9135V48.5146C51.5424 45.8397 49.3663 43.6635 46.6914 43.6635H10.3085C7.63362 43.6635 5.45744 45.8397 5.45744 48.5146V57.9135C5.45744 58.7494 4.77744 59.4294 3.94148 59.4294C3.10552 59.4294 2.42553 58.7494 2.42553 57.9135V40.0252H54.5743V57.9135C54.5743 58.7493 53.8944 59.4294 53.0584 59.4294Z" fill="white"/>
</svg>
