<svg width="64" height="55" viewBox="0 0 64 55" fill="none" xmlns="http://www.w3.org/2000/svg">
<path d="M40 46.7305C38.894 46.7305 38 47.6305 38 48.7825V52.8054C38 53.9391 38.886 54.8575 40 54.8575C41.106 54.8575 42 53.9574 42 52.8054V48.7825C42 47.6488 41.114 46.7305 40 46.7305Z" fill="white"/>
<path d="M24 46.7305C22.894 46.7305 22 47.6305 22 48.7825V52.8054C22 53.9391 22.888 54.8575 24 54.8575C25.106 54.8575 26 53.9574 26 52.8054V48.7825C26 47.6488 25.112 46.7305 24 46.7305Z" fill="white"/>
<path d="M48.0078 42.668C46.9018 42.668 46.0078 43.568 46.0078 44.72V48.7429C46.0078 49.8766 46.8938 50.795 48.0078 50.795C49.1138 50.795 50.0078 49.8949 50.0078 48.7429V44.72C50.0078 43.5863 49.1218 42.668 48.0078 42.668Z" fill="white"/>
<path d="M32.0078 42.668C30.9018 42.668 30.0078 43.568 30.0078 44.72V48.7429C30.0078 49.8766 30.8958 50.795 32.0078 50.795C33.1138 50.795 34.0078 49.8949 34.0078 48.7429V44.72C34.0078 43.5863 33.1218 42.668 32.0078 42.668Z" fill="white"/>
<path d="M16 42.668C14.894 42.668 14 43.568 14 44.72V48.7429C14 49.8766 14.888 50.795 16 50.795C17.106 50.795 18 49.8949 18 48.7429V44.72C18 43.5863 17.112 42.668 16 42.668Z" fill="white"/>
<path d="M55.172 16.6847C53.32 11.6846 48.568 8.12698 43 8.12698C41.718 8.12698 40.48 8.31594 39.308 8.66743C36.136 3.46413 30.466 0 24 0C14.192 0 6.212 7.97257 6.004 17.8855C2.414 19.9964 0 23.9401 0 28.4444C0 35.1736 5.374 40.6349 12 40.6349H52C58.624 40.6349 64 35.1634 64 28.4444C64 22.8267 60.26 18.0968 55.172 16.6847ZM52.006 36.5714H11.994C7.588 36.5714 4 32.9326 4 28.4444C4 24.6004 6.634 21.3699 10.174 20.5288C10.058 19.7994 10 19.0497 10 18.2857C10 10.431 16.268 4.06349 24 4.06349C30.324 4.06349 35.668 8.32406 37.404 14.1714C38.942 12.93 40.882 12.1905 43 12.1905C47.632 12.1905 51.45 15.746 51.946 20.3175H52.006C56.412 20.3175 60 23.9563 60 28.4444C60 32.9244 56.422 36.5714 52.006 36.5714Z" fill="white"/>
</svg>
