<svg width="65" height="60" viewBox="0 0 65 60" fill="none" xmlns="http://www.w3.org/2000/svg">
<path d="M4.87769 48.8307C4.88962 48.8351 4.90001 48.843 4.9122 48.847C6.78704 49.6621 8.822 50.1006 10.9256 50.1006C14.7148 50.1006 18.2788 48.7166 21.0638 46.1842C23.848 48.7166 27.4119 50.1006 31.2011 50.1006C33.1754 50.1006 35.0987 49.7081 36.8828 48.9819C36.9125 48.9735 36.9395 48.9617 36.9682 48.9508C38.8364 48.1772 40.5479 47.0325 41.9899 45.5592C44.8263 48.4582 48.699 50.1006 52.7777 50.1006C56.6545 50.1006 60.3458 48.6144 63.1385 45.9768C63.1406 45.9749 63.1428 45.9734 63.1449 45.9714C63.5524 45.5862 63.9415 45.1775 64.3084 44.7442C64.6552 44.3338 64.6039 43.7202 64.1945 43.3725C63.7822 43.0268 63.1705 43.0781 62.8228 43.4865C62.6014 43.7482 62.3605 43.9875 62.1216 44.2294C56.6948 43.6596 51.5818 41.5552 47.3131 38.1016C45.5401 36.667 44.0236 34.9995 42.7766 33.1346C45.5061 33.3934 48.3364 32.8076 50.8381 31.2481C54.4534 28.994 56.9735 25.4662 57.9357 21.3161C58.8979 17.166 58.1855 12.8896 55.9314 9.27436C53.1473 4.81083 48.7921 1.69895 43.6674 0.51062C39.6626 -0.418382 35.5664 -0.0657168 31.8341 1.45411C27.7335 2.05828 23.8562 3.48449 20.3086 5.69612C6.66271 14.2052 0.045813 30.5148 3.69555 45.9916C2.97103 45.5129 2.28775 44.9602 1.65755 44.3348C1.27852 43.9577 0.661128 43.9586 0.282117 44.3405C-0.0959204 44.7214 -0.0940477 45.3369 0.287844 45.7159C1.63333 47.0515 3.19092 48.0924 4.87769 48.8307ZM43.2285 2.40567C47.8469 3.47619 51.7719 6.28123 54.2804 10.304C58.3669 16.8564 56.3608 25.5108 49.8084 29.5972C44.6581 32.8107 37.8522 31.232 34.6416 26.0816C33.4237 24.1296 33.0391 21.8205 33.5587 19.5797C34.0782 17.3389 35.4394 15.4334 37.3914 14.2166C38.9084 13.2705 40.7056 12.9703 42.4467 13.375C44.1889 13.7787 45.6697 14.8369 46.6158 16.3548C46.8999 16.8098 47.4982 16.9494 47.9562 16.6654C48.4121 16.3814 48.5508 15.781 48.2668 15.3251C47.0452 13.3665 45.134 12.0015 42.8856 11.4799C40.6372 10.9566 38.3195 11.345 36.3618 12.5657C33.969 14.058 32.3 16.3928 31.6636 19.1399C31.0263 21.8879 31.4983 24.7185 32.9906 27.1114C34.7104 29.8681 37.3074 31.7435 40.1948 32.6257C41.7013 35.3038 43.6745 37.6604 46.0897 39.6138C50.1649 42.9106 54.9592 45.0648 60.0709 45.922C57.9301 47.3547 55.4076 48.1552 52.7777 48.1552C48.9041 48.1552 45.2433 46.454 42.7327 43.4875C42.5475 43.269 42.2758 43.1427 41.9899 43.1427C41.7039 43.1427 41.4323 43.269 41.2471 43.4865C39.9595 45.0085 38.3663 46.1907 36.5997 46.9878C30.7874 44.7811 25.9704 40.8352 22.6653 35.535C19.4946 30.4512 18.4944 24.4375 19.8469 18.6013C21.1996 12.7652 24.7446 7.80576 29.8284 4.63601C33.8512 2.12735 38.6092 1.33321 43.2285 2.40567ZM21.3383 7.34695C22.8378 6.41184 24.403 5.6352 26.0189 5.00316C21.9829 8.37853 19.1603 12.9471 17.952 18.1625C16.4815 24.5049 17.5692 31.0401 21.0145 36.5647C24.1289 41.5585 28.4978 45.4294 33.7438 47.894C32.9125 48.0579 32.0636 48.1552 31.2011 48.1552C27.618 48.1552 24.2658 46.7342 21.762 44.1533C21.5786 43.9643 21.3269 43.8579 21.0638 43.8579C20.8007 43.8579 20.549 43.9643 20.3656 44.1533C17.8608 46.7342 14.5086 48.1552 10.9256 48.1552C9.21841 48.1552 7.56168 47.8266 6.02219 47.2082C1.66113 32.0565 7.91211 15.7195 21.3383 7.34695Z" fill="white"/>
<path d="M62.8228 52.7755C60.3123 55.743 56.6505 57.4442 52.7777 57.4442C48.9041 57.4442 45.2433 55.743 42.7327 52.7765C42.5475 52.558 42.2758 52.4316 41.9899 52.4316C41.7039 52.4316 41.4323 52.558 41.2471 52.7755C38.7365 55.743 35.0747 57.4442 31.2011 57.4442C27.618 57.4442 24.2658 56.0232 21.762 53.4423C21.5786 53.2534 21.3269 53.1469 21.0638 53.1469C20.8007 53.1469 20.549 53.2534 20.3656 53.4423C17.8608 56.0232 14.5086 57.4442 10.9256 57.4442C7.43098 57.4442 4.13964 56.0878 1.65755 53.6238C1.27852 53.2467 0.661128 53.2476 0.282117 53.6295C-0.0959204 54.0104 -0.0940477 54.6259 0.287844 55.0049C3.1365 57.8328 6.91426 59.3896 10.9256 59.3896C14.7148 59.3896 18.2788 58.0056 21.0638 55.4732C23.848 58.0056 27.4119 59.3896 31.2011 59.3896C35.2789 59.3896 39.1525 57.7473 41.9899 54.8482C44.8263 57.7473 48.699 59.3896 52.7777 59.3896C57.2232 59.3896 61.4265 57.4376 64.3084 54.0332C64.6552 53.6229 64.6039 53.0092 64.1945 52.6616C63.7822 52.3148 63.1705 52.3671 62.8228 52.7755Z" fill="white"/>
</svg>
