<svg width="46" height="77" viewBox="0 0 46 77" fill="none" xmlns="http://www.w3.org/2000/svg">
<path d="M6.03454 76.6451C6.40743 76.8843 6.82862 77 7.24645 77C7.89227 77 8.53136 76.7215 8.97164 76.1936L44.5931 33.55C45.1525 32.8806 45.2727 32.0146 44.9031 31.225C44.5336 30.4365 43.7406 29.9985 42.8691 29.9985H28.6867L41.9537 3.28829C42.4524 2.28529 42.1379 1.03632 41.2157 0.401728C40.2902 -0.232866 39.0424 -0.107071 38.2876 0.718463L0.590512 41.8334C-0.0115098 42.4905 -0.168754 43.5024 0.190662 44.3179C0.548954 45.1344 1.35652 45.723 2.24719 45.723H18.6849L5.22024 73.854C4.73278 74.875 5.08096 76.0329 6.03454 76.6451ZM24.2727 44.31C24.6051 43.6148 24.5568 42.8633 24.1457 42.2119C23.7347 41.5582 23.0169 41.2303 22.2464 41.2303H7.35427L30.8241 15.5578L23.0473 31.143C22.7002 31.8394 22.7384 32.7155 23.1484 33.377C23.5572 34.0386 24.2805 34.4912 25.0578 34.4912H38.0652L16.9642 59.6863L24.2727 44.31Z" fill="white"/>
</svg>
