<svg width="61" height="66" viewBox="0 0 61 66" fill="none" xmlns="http://www.w3.org/2000/svg">
<path d="M54.5144 18.0854L60.2266 12.6075L54.2231 6.90965L48.4205 12.4753C45.6045 10.5185 42.4261 9.00969 39 8.06036V4.36185C39 1.95698 36.9486 0 34.4264 0H26.5864C24.0656 0 22.014 1.95698 22.014 4.36185V8.06009C9.3207 11.5771 0.015625 22.7699 0.015625 35.998C0.015625 52.0378 13.6938 65.0864 30.5062 65.0864C47.3201 65.0864 60.9984 52.0378 60.9984 35.998C60.9985 29.2472 58.5748 23.0266 54.5144 18.0854ZM58.1196 37.3539C57.786 43.6066 55.1584 49.291 51.0268 53.6562L48.6821 51.4195L46.6721 53.3369L49.0167 55.5737C44.4409 59.5153 38.482 62.0219 31.9277 62.34V59.1633H29.0849V62.34C22.5308 62.0219 16.5724 59.5153 11.997 55.574L14.3421 53.3369L12.3322 51.4195L9.98711 53.6566C5.8556 49.2913 3.22815 43.6067 2.89454 37.3539H6.22444V34.6421H2.89454C3.22801 28.3894 5.85546 22.7051 9.98683 18.3402L12.332 20.5765L14.342 18.659L11.9966 16.4228C16.5721 12.4817 22.5305 9.97536 29.0847 9.6571V12.834H31.9276V9.65723C38.482 9.97549 44.4409 12.4818 49.0167 16.4232L46.6718 18.6591L48.6818 20.5766L51.0268 18.3406C55.1584 22.7055 57.7859 28.3895 58.1195 34.6422H54.7894V37.354L58.1196 37.3539ZM54.2343 10.7444L56.2067 12.6181L52.6529 16.0256C52.0152 15.3824 51.3466 14.7676 50.6503 14.1818L54.2343 10.7444ZM24.8569 4.36185C24.8569 3.4521 25.6329 2.71198 26.5864 2.71198H34.4264C35.3813 2.71198 36.1573 3.45224 36.1573 4.36185V7.41361C34.3253 7.08486 32.4369 6.91085 30.5064 6.91085C28.5764 6.91085 26.6883 7.08486 24.8569 7.41348V4.36185Z" fill="white"/>
<path d="M42.4813 14.4043L44.916 15.8026L31.7238 36.6969L29.2891 35.2986L42.4813 14.4043Z" fill="white"/>
</svg>
