<svg width="43" height="55" viewBox="0 0 43 55" fill="none" xmlns="http://www.w3.org/2000/svg">
<path d="M14.3333 12.909C14.3333 8.03626 7.16667 0 7.16667 0C7.16667 0 0 8.02127 0 12.909C0 16.6423 2.29393 20.0757 7.16667 20.0757C12.0394 20.0757 14.3333 16.3574 14.3333 12.909ZM7.15167 17.212C5.14261 17.212 2.84867 16.3574 2.84867 12.909C2.84867 10.0453 7.15167 4.58787 7.15167 4.58787C7.15167 4.58787 11.4547 10.0303 11.4547 12.909C11.4547 16.3574 9.16074 17.212 7.15167 17.212Z" fill="white"/>
<path d="M35.8346 11.4844C35.8346 11.4844 28.668 19.5056 28.668 24.3934C28.668 28.1266 30.9619 31.56 35.8346 31.56C40.7074 31.56 43.0013 27.8269 43.0013 24.3934C43.0013 19.5056 35.8346 11.4844 35.8346 11.4844ZM35.8346 28.6814C33.8256 28.6814 31.5316 27.8269 31.5316 24.3784C31.5316 21.5147 35.8346 16.0572 35.8346 16.0572C35.8346 16.0572 40.1376 21.4997 40.1376 24.3784C40.1376 27.8269 37.8437 28.6814 35.8346 28.6814Z" fill="white"/>
<path d="M8.58984 47.3193C8.58984 51.0524 10.8838 54.486 15.7565 54.486C20.6292 54.486 22.9232 50.7527 22.9232 47.3193C22.9232 42.4466 15.7565 34.4102 15.7565 34.4102C15.7565 34.4102 8.58984 42.4466 8.58984 47.3193ZM15.7565 51.6221C13.7474 51.6221 11.4535 50.7677 11.4535 47.3193C11.4535 44.4555 15.7565 38.9982 15.7565 38.9982C15.7565 38.9982 20.0595 44.4406 20.0595 47.3193C20.0595 50.7677 17.7656 51.6221 15.7565 51.6221Z" fill="white"/>
</svg>
