<svg width="46" height="54" viewBox="0 0 46 54" fill="none" xmlns="http://www.w3.org/2000/svg">
<path d="M24.448 30.0755L24.7868 30.0916L25.4302 30.122L25.2412 30.7377C24.6487 32.6681 24.2631 34.8108 24.095 37.1249L24.0949 37.1263C24.0756 37.3829 24.0483 37.6408 24.0113 37.9041M24.448 30.0755L24.0113 37.9041M24.448 30.0755C24.448 30.0755 24.448 30.0755 24.4479 30.0755C22.6974 29.9915 21.2076 28.9772 20.4467 27.5218L20.4466 27.5215C20.1011 26.8619 19.9062 26.1102 19.9062 25.3125C19.9062 22.7631 21.9004 20.6716 24.4481 20.5486L29.3812 20.3141L29.7877 20.2947L29.8513 19.8927C30.0602 18.5719 30.083 17.24 29.9203 15.9235L29.9203 15.9231C29.1348 9.60995 23.9785 4.51876 17.6495 3.80961L17.649 3.80955C13.6008 3.36042 9.71189 4.5886 6.70275 7.27924L6.70269 7.2793C3.85852 9.82338 2.17637 13.4217 2.04021 17.2188H1.35229C1.48876 13.2263 3.2546 9.4403 6.24533 6.7676L6.24549 6.76746C8.77332 4.50645 11.8928 3.24735 15.2148 3.07105L15.6883 3.04592V2.57175V0.5H16.3758V2.57428V3.04713L16.848 3.0735C16.9526 3.07935 17.0504 3.08357 17.1443 3.08763C17.3468 3.09637 17.5312 3.10434 17.7266 3.12604C24.3617 3.86993 29.7791 9.21924 30.6019 15.839L30.6019 15.8392C30.76 17.1062 30.7456 18.3891 30.5723 19.6664L30.4915 20.2616L31.0915 20.2331L37.952 19.9065L37.952 19.9067L37.965 19.9057C38.047 19.8997 38.1278 19.927 38.2062 20.0013C38.2742 20.0664 38.3125 20.1566 38.3125 20.25V30.375C38.3125 30.4686 38.274 30.559 38.2057 30.6242C38.1416 30.6849 38.0567 30.7188 37.9688 30.7188H37.9687H37.9686H37.9685H37.9684H37.9684H37.9683H37.9682H37.9681H37.968H37.968H37.9679H37.9678H37.9677H37.9676H37.9676H37.9675H37.9674H37.9673H37.9673H37.9672H37.9671H37.967H37.9669H37.9669H37.9668H37.9667H37.9666H37.9665H37.9665H37.9664H37.9663H37.9662H37.9661H37.9661H37.966H37.9659H37.9658H37.9658H37.9657H37.9656H37.9655H37.9654H37.9654H37.9653H37.9652H37.9651H37.965H37.965H37.9649H37.9648H37.9647H37.9647H37.9646H37.9645H37.9644H37.9643H37.9643H37.9642H37.9641H37.964H37.964H37.9639H37.9638H37.9637H37.9636H37.9636H37.9635H37.9634H37.9633H37.9633H37.9632H37.9631H37.963H37.9629H37.9629H37.9628H37.9627H37.9626H37.9626H37.9625H37.9624H37.9623H37.9622H37.9622H37.9621H37.962H37.9619H37.9618H37.9618H37.9617H37.9616H37.9615H37.9615H37.9614H37.9613H37.9612H37.9612H37.9611H37.961H37.9609H37.9608H37.9608H37.9607H37.9606H37.9605H37.9604H37.9604H37.9603H37.9602H37.9601H37.9601H37.96H37.9599H37.9598H37.9598H37.9597H37.9596H37.9595H37.9594H37.9594H37.9593H37.9592H37.9591H37.9591H37.959H37.9589H37.9588H37.9587H37.9587H37.9586H37.9585H37.9584H37.9584H37.9583H37.9582H37.9581H37.958H37.958H37.9579H37.9578H37.9577H37.9577H37.9576H37.9575H37.9574H37.9573H37.9573H37.9572H37.9571H37.957H37.957H37.9569H37.9568H37.9567H37.9566H37.9566H37.9565H37.9564H37.9563H37.9563H37.9562H37.9561H37.956H37.956H37.9559H37.9558H37.9557H37.9556H37.9556H37.9555H37.9554H37.9553H37.9553H37.9552H37.9551H37.955H37.9549H37.9549H37.9548H37.9547H37.9546H37.9546H37.9545H37.9544H37.9543H37.9543H37.9542H37.9541H37.954H37.9539H37.9539H37.9538H37.9537H37.9536H37.9536H37.9535H37.9534H37.9533H37.9532H37.9532H37.9531H37.953H37.9529H37.9529H37.9528H37.9527H37.9526H37.9525H37.9525H37.9524H37.9523H37.9522H37.9522H37.9521H37.952H37.9519H37.9518H37.9518H37.9517H37.9516H37.9515H37.9515H37.9514H37.9513H37.9512H37.9511H37.9511H37.951H37.9509H37.9508H37.9508H37.9507H37.9506H37.9505H37.9505H37.9504H37.9503H37.9502H37.9501H37.9501H37.95H37.9499H37.9498H37.9497H37.9497H37.9496H37.9495H37.9494H37.9494H37.9493H37.9492H37.9491H37.9491H37.949H37.9489H37.9488H37.9487H37.9487H37.9486H37.9485H37.9484H37.9483H37.9483H37.9482H37.9481H37.948H37.948H37.9479H37.9478H37.9477H37.9476H37.9476H37.9475H37.9474H37.9473H37.9473H37.9472H37.9471H37.947H37.9469H37.9469H37.9468H37.9467H37.9466H37.9466H37.9465H37.9464H37.9463H37.9462H37.9462H37.9461H37.946H37.9459H37.9459H37.9458H37.9457H37.9456H37.9455H37.9455H37.9454H37.9453H37.9452H37.9451H37.9451H37.945H37.9449H37.9448H37.9448H37.9447H37.9446H37.9445H37.9444H37.9444H37.9443H37.9442H37.9441H37.944H37.944H37.9439H37.9438H37.9437H37.9436H37.9436H37.9435H37.9434H37.9433H37.9433H37.9432H37.9431H37.943H37.9429H37.9429H37.9428H37.9427H37.9426H37.9425H37.9425H37.9424H37.9423H37.9422H37.9422H37.9421H37.942H37.9419H37.9418H37.9418H37.9417H37.9416H37.9415H37.9414H37.9414H37.9413H37.9412H37.9411H37.941H37.941H37.9409H37.9408H37.9407H37.9406H37.9406H37.9405H37.9404H37.9403H37.9402H37.9402H37.9401H37.94H37.9399H37.9398H37.9398H37.9397H37.9396H37.9395H37.9394H37.9394H37.9393H37.9392H37.9391H37.939H37.939L26.5462 30.1759L26.1663 30.1578L26.0475 30.5191C25.3897 32.5182 24.9566 34.7457 24.7801 37.1749C24.7597 37.4495 24.7313 37.7237 24.6925 37.9984L24.6924 37.9993C23.9352 43.4351 19.4191 47.8 13.9637 48.3685L13.9629 48.3686C13.5183 48.4156 13.076 48.4383 12.6368 48.4383C11.532 48.4383 10.4519 48.2892 9.41373 48.004L8.78125 47.8302V48.4861V53.5H8.09375V47.8778V47.551L7.79451 47.4198C6.61504 46.9027 5.50996 46.2057 4.52152 45.3144L4.52138 45.3142C2.09035 43.1238 0.645068 40.0364 0.510343 36.7812H1.19845M24.448 30.0755L1.19845 36.7812M24.0113 37.9041C23.2951 43.0368 19.044 47.148 13.8919 47.6857L13.8913 47.6858C10.5937 48.0257 7.42645 47.0062 4.98105 44.8043L4.9809 44.8041C2.69394 42.7431 1.3326 39.8428 1.19845 36.7812M24.0113 37.9041L1.19845 36.7812M30.1067 20.5938H30.0865L30.0663 20.5954L24.4718 21.0487C22.2917 21.1571 20.5938 22.9786 20.5938 25.1513C20.5938 27.3271 22.2963 29.1495 24.4804 29.2536L24.5038 29.2547L24.5271 29.2536L25.9505 29.1883L37.0892 29.9886L37.625 30.0271V29.4899V21.1351V20.638L37.1279 20.6351L30.1122 20.5938H30.1092H30.1067Z" fill="white" stroke="white"/>
<path d="M8.19358 31.8205L8.19452 31.8195L11.3223 28.6917L11.4688 28.5453V28.3382V23.0774V22.902L11.3592 22.765L8.16939 18.778C8.16931 18.7779 8.16922 18.7778 8.16913 18.7777C8.11987 18.7158 8.09375 18.641 8.09375 18.5625C8.09375 13.8891 11.7654 10.0554 16.375 9.79532V10.484C12.2451 10.7368 8.94404 14.0998 8.78751 18.2543L8.78051 18.4402L8.89671 18.5854L12.0806 22.5657C12.0807 22.5658 12.0807 22.5659 12.0808 22.566C12.1301 22.6279 12.1562 22.7027 12.1562 22.7812V28.6875C12.1562 28.78 12.1199 28.8669 12.0563 28.9305L12.4099 29.284L12.0563 28.9305L8.94457 32.0422L8.77736 32.2094L8.80053 32.4448C8.99336 34.4031 10.648 35.9375 12.6562 35.9375H14.6875V36.625H12.6562C10.1404 36.625 8.09375 34.5783 8.09375 32.0625C8.09375 31.9701 8.13001 31.8837 8.19358 31.8205Z" fill="white" stroke="white"/>
<path d="M41 25.6562V24.9688H41.6875V25.6562H41Z" fill="white" stroke="white"/>
<path d="M44.375 25.6562V24.9688H45.0625V25.6562H44.375Z" fill="white" stroke="white"/>
<path d="M44.375 29.0312V28.3438H45.0625V29.0312H44.375Z" fill="white" stroke="white"/>
<path d="M44.375 22.2812V21.5938H45.0625V22.2812H44.375Z" fill="white" stroke="white"/>
</svg>
