<svg width="72" height="60" viewBox="0 0 72 60" fill="none" xmlns="http://www.w3.org/2000/svg">
<path d="M39.9844 21.9337C42.2291 19.0871 45.5952 17.2081 49.3903 17.006M49.3903 17.006C49.1611 17.006 49.615 16.9925 49.3903 17.006ZM49.3903 17.006C56.5582 17.006 63.0283 23.8216 63.0283 31.1849C67.5426 31.8138 71.0013 35.3018 71.0013 39.5124C71.0013 44.1702 66.7737 47.9439 61.5581 47.9439H55.7847" stroke="white" stroke-width="2" stroke-miterlimit="10" stroke-linecap="round" stroke-linejoin="round"/>
<path d="M13.9786 47.9437C6.81066 47.9437 1 41.9783 1 34.6185C1 27.7769 6.01799 22.1401 12.4802 21.3779C12.3289 20.4746 12.2509 19.5487 12.2509 18.6047C12.2509 8.88153 20.5808 1 30.8584 1C40.5635 1 48.5342 8.03241 49.3901 17.0058" stroke="white" stroke-width="2" stroke-miterlimit="10" stroke-linecap="round" stroke-linejoin="round"/>
<path d="M25.8672 43.0013H37.2073C39.2737 43.0013 40.9494 41.3279 40.9494 39.2593C40.9494 37.1929 39.2737 35.5195 37.2073 35.5195C36.199 35.5195 35.2844 35.9181 34.6114 36.5663" stroke="white" stroke-width="2" stroke-miterlimit="10" stroke-linecap="round" stroke-linejoin="round"/>
<path d="M20.0977 47.9536H47.3296C49.0583 47.9536 50.4574 46.5557 50.4574 44.8281C50.4574 43.0994 49.0595 41.6992 47.3296 41.6992C46.6081 41.6992 45.943 41.9442 45.4157 42.3553" stroke="white" stroke-width="2" stroke-miterlimit="10" stroke-linecap="round" stroke-linejoin="round"/>
<path d="M22.4023 52.8164H41.4129C42.9395 52.8164 44.1759 54.054 44.1759 55.5795C44.1759 57.1038 42.9384 58.3403 41.4129 58.3403C40.5728 58.3403 39.8196 57.9654 39.3138 57.3737" stroke="white" stroke-width="2" stroke-miterlimit="10" stroke-linecap="round" stroke-linejoin="round"/>
</svg>
